<svg width="41" height="36" viewBox="0 0 41 36" fill="none" xmlns="http://www.w3.org/2000/svg">
<path d="M39.9542 7.78686L25.4157 0.171456C25.201 0.0589783 24.96 0 24.715 0C24.47 0 24.2289 0.0589783 24.0142 0.171456L9.47572 7.78686C9.24778 7.90638 9.0577 8.08199 8.92531 8.29533C8.79292 8.50869 8.72308 8.75196 8.72308 8.99978C8.72308 9.2476 8.79292 9.49088 8.92531 9.70423C9.0577 9.91758 9.24778 10.0932 9.47572 10.2127L23.2611 17.4335V32.2752L18.8472 29.9629L17.4457 32.3874L24.0142 35.8282C24.2288 35.9409 24.4699 36 24.715 36C24.96 36 25.2011 35.9409 25.4157 35.8282L39.9542 28.2127C40.1823 28.0933 40.3724 27.9177 40.5049 27.7043C40.6374 27.491 40.7073 27.2477 40.7073 26.9998V8.99978C40.7073 8.75192 40.6374 8.50861 40.5049 8.29526C40.3724 8.0819 40.1823 7.90633 39.9542 7.78686ZM24.715 2.96562L36.2367 8.99978L24.715 15.0339L13.1932 8.99978L24.715 2.96562ZM37.7996 26.1815L26.1688 32.2738V17.4321L37.7996 11.3398V26.1815Z" fill="#FF8B03"/>
<path d="M11.6308 18.0006H0V15.2313H11.6308V18.0006ZM14.5385 29.0775H2.9077V26.3083H14.5385V29.0775ZM17.4462 23.5391H5.8154V20.7698H17.4462V23.5391Z" fill="#FF8B03"/>
</svg>
