<svg width="66" height="20" viewBox="0 0 66 20" fill="none" xmlns="http://www.w3.org/2000/svg">
<g id="Group">
<g id="Group_2">
<path id="Vector" d="M27.0452 13.827H26.9238L26.681 13.7967H26.5899L26.3168 13.736L26.165 13.6752L25.8918 13.6145L25.6793 13.4931L25.4668 13.311L25.3454 13.2503L25.1937 13.0682L25.0722 13.0075L25.0115 12.9164L24.8901 12.7343L24.7687 12.6129L24.708 12.4611L24.6473 12.3093L24.6169 12.1879L24.5562 12.0361L24.4955 11.9147V11.8237L24.4348 11.4898L24.4652 11.1862L24.4955 11.0345V10.822L24.5259 10.7613V10.5488L24.5562 10.4274L24.5866 10.3363L24.6169 10.1238L24.6473 10.0024L24.6776 9.78996L24.6473 9.66854L24.708 9.45607V9.24359L24.7687 9.03111V8.81863L24.8294 8.60616L24.8598 8.36333L24.8901 8.24191L24.9508 8.02944L24.9812 7.81696L25.0722 7.48307L25.133 7.27059L25.0722 7.05811L25.133 6.90634L25.1633 6.78493L25.224 6.57245L25.2847 6.39033L25.3151 6.17785L25.3454 6.05644L25.4061 5.90467L25.4365 5.72254L25.4668 5.60113L25.4972 5.51007L25.5579 5.41901L25.5883 5.29759L25.649 5.20653L25.6793 5.08511L25.74 4.99405L25.8311 4.81193L25.8614 4.72087L25.9222 4.53874L25.9829 4.32627L26.0436 4.23521L26.1043 4.11379L26.1953 3.90131L26.256 3.81025L26.2864 3.68884L26.3775 3.53707L26.2864 3.35494L26.3471 3.26388L26.4078 3.17282L26.4685 3.08176L26.6506 2.89964L26.8328 2.74787L27.0452 2.65681L27.2577 2.53539L27.4702 2.44433L27.6827 2.38362L27.9255 2.35327L28.138 2.29256H28.6236L29.0486 2.26221L29.2611 2.29256L29.4736 2.32291L29.6253 2.35327H29.8378L30.111 2.41398L30.2324 2.47468L30.5056 2.5961L30.7181 2.68716L30.9002 2.83893L31.143 3.05141L31.2037 3.14247L31.2644 3.20318L31.2948 3.35494L31.3555 3.53707L31.3858 3.71919L31.4162 3.93167V4.5691L31.3858 4.78157V4.9637L31.3555 5.14582V5.26724L31.3251 5.44936L31.2948 5.63148L31.2644 5.78325L31.2341 6.02608L31.143 6.23856L30.9912 6.32962L30.6574 6.35997L30.3842 6.32962L30.1413 6.35997L29.9896 6.32962H29.5343L29.3521 6.29927L29.2004 6.23856L29.17 6.08679L29.2004 5.90467L29.2307 5.66184L29.2611 5.44936L29.2914 5.32794L29.2611 5.17618L29.3218 4.87264L29.2914 4.75122L29.2611 4.5691L29.2307 4.47804L29.1397 4.35662L29.0486 4.26556L28.8968 4.20485H28.5326L28.4719 4.26556L28.3201 4.35662L28.1987 4.47804L28.138 4.5691L28.0773 4.69051L28.0166 4.81193L27.9862 4.90299L27.8952 5.08511L27.8041 5.29759L27.7737 5.47971L27.7434 5.60113L27.6827 5.72254V5.84396L27.622 5.99573V6.08679L27.5916 6.20821L27.5613 6.39033L27.5006 6.51174L27.4702 6.63316L27.4398 6.84564L27.3791 6.96705L27.3488 7.11882L27.3184 7.27059L27.2577 7.42236V7.60448L27.2274 7.7866L27.1667 8.09014L27.106 8.30262L27.0756 8.42404L27.0452 8.63651L27.0149 8.72757L26.9845 8.94005V9.06147L26.9238 9.21323L26.8631 9.39536V9.57748L26.8328 9.78996L26.8935 10.0024V10.1238L26.8631 10.2149L26.8328 10.4274V10.6399V10.8827L26.8631 11.0345V11.1862L26.9542 11.338L27.0149 11.4594L27.0756 11.5201L27.2274 11.6112L27.5309 11.6719H27.8344L28.0166 11.6112L28.1987 11.4898L28.3201 11.338L28.3808 11.1862L28.4719 11.0041L28.5326 10.8523L28.5933 10.7006L28.6844 10.3363L28.7754 9.6989L28.7147 9.60783L28.5933 9.57748H28.229L28.138 9.48642V9.3043L28.229 8.87934L28.2898 8.48474L28.3201 8.33297L28.3505 8.21156L28.4415 7.84731L28.4719 7.7866L28.5629 7.69554L28.9575 7.66519L29.0789 7.69554L29.3218 7.66519L29.5646 7.69554H30.1413L30.2627 7.66519L30.4752 7.69554H30.8091L30.9912 7.7866V8.1812L30.9609 8.39368V8.5151L30.9305 8.69722L30.9002 8.81863L30.8698 8.9097L30.8395 9.03111V9.12217L30.7788 9.33465L30.7484 9.42571L30.7788 9.54713L30.7484 9.63819L30.7181 9.85067L30.6877 9.97208L30.627 10.1542L30.5966 10.2756L30.5663 10.4577L30.5359 10.6399L30.5056 10.8827L30.4449 11.0952L30.3842 11.2166L30.3538 11.5201L30.2931 11.6112L30.2627 11.7326L30.202 11.8844L30.111 12.0968L30.0503 12.2183L30.0199 12.3093L29.9896 12.4307L29.8682 12.6736V12.7646L29.7164 12.9771L29.5343 13.2199L29.3521 13.3414L29.2611 13.4021L29.1397 13.4931L28.9272 13.5842L28.6844 13.6752L28.3505 13.736L28.2594 13.7663L28.0469 13.827L27.8041 13.8877H27.4398L27.2881 13.9181L27.0452 13.827Z" fill="#392C60"/>
<path id="Vector_2" d="M33.2374 13.7058H32.8125L32.691 13.6754H31.8411L31.6894 13.6451L31.6287 13.4933L31.6894 13.3415L31.7197 13.1898L31.7501 12.9469L31.7804 12.7041L31.8411 12.4613L31.8715 12.2184L31.9322 12.097V11.9452L31.9626 11.8238V11.7024L31.9929 11.581L32.0233 11.4596L32.0536 11.2471L32.084 11.0346L32.1447 10.9132L32.175 10.6704V10.549L32.2054 10.4276L32.2357 10.2151V10.124L32.2964 9.94189L32.2661 9.85083L32.3268 9.63836L32.3875 9.51694L32.4179 9.39552L32.4786 9.15269L32.5089 9.03128L32.5696 8.69739V8.45456L32.6303 8.24208L32.6607 7.99925L32.7214 7.87783L32.7518 7.75642L32.7821 7.635V7.51359L32.8428 7.42252L32.9339 6.93686L32.9946 6.81545L33.0249 6.69403L32.9946 6.60297L33.0553 6.39049L33.116 6.14766L33.1464 5.69236L33.2071 5.57094L33.2374 5.23705L33.2981 5.14599L33.3285 5.02457L33.3588 4.90316L33.3285 4.8121L33.3588 4.69068L33.4195 4.4782L33.4499 4.26573L33.5106 4.17467V4.05325L33.5713 3.93183L33.541 3.84077L33.5713 3.71936L33.6017 3.50688L33.632 3.41582L33.6624 3.32476L33.6927 3.11228L33.5713 3.05157L33.541 2.93016L33.5713 2.74803L33.632 2.65697L33.6624 2.56591L33.7838 2.47485H34.057L34.148 2.4445L34.2694 2.47485L34.4516 2.4445H34.573L34.6944 2.47485H34.8462L35.2104 2.4445L36.4246 2.41414L36.7888 2.4445H36.9102L37.3655 2.41414H37.7298L37.8816 2.38379L38.0333 2.41414L38.1851 2.4445L38.2762 2.56591L38.2154 2.74803V2.8391L38.1851 3.2337V3.32476L38.1244 3.44617L38.094 3.56759L38.0637 3.65865L38.003 3.90148V4.0229L37.9423 4.23537L37.9119 4.32643L37.8512 4.53891L37.6994 4.56926H37.0316L36.8495 4.59962H35.8175L35.4229 4.62997L35.3622 4.8121L35.3318 4.93351V5.14599L35.2711 5.23705V5.35846L35.2104 5.662L35.1801 5.87448L35.1194 6.08696L35.089 6.20837L35.1194 6.32979L35.0586 6.48156L35.0283 6.78509H35.3318L35.9086 6.81545L36.2121 6.78509H36.637L36.7585 6.81545L36.8495 6.93686L36.8192 7.11899V7.2404L36.7888 7.42252L36.7281 7.635L36.6978 7.75642L36.637 7.99925V8.12066L36.5763 8.24208L36.546 8.45456L36.4853 8.69739L36.4549 8.90986L36.4246 8.94022H36.2728L36.03 8.97057H35.8782L35.4836 9.00092L35.2104 8.97057H35.0283L34.8158 9.00092H34.7855L34.7248 9.18305L34.664 9.39552L34.6033 9.85083L34.5426 10.0026L34.5123 10.1544L34.4819 10.3061L34.4516 10.4276L34.3909 10.7311L34.3302 11.156V11.2775L34.3909 11.3382L34.6033 11.3685H35.5443L35.7568 11.3989L36.121 11.4292L36.5763 11.3989L36.6978 11.4596L36.6674 11.581L36.637 11.6417L36.6067 11.8238L36.5763 11.9452L36.5156 12.3095V12.522L36.4853 12.6434L36.4549 12.7344L36.4246 12.8559L36.3639 13.0987L36.3335 13.3719L36.3032 13.5236L36.2424 13.7058H34.7248L34.4819 13.7361L34.2694 13.7058L34.1784 13.7361H33.8445L33.6017 13.7665L33.4802 13.7968L33.2374 13.7058Z" fill="#392C60"/>
<path id="Vector_3" d="M37.8209 13.7057L37.7299 13.5236L37.7602 13.4022V13.1593L37.7906 12.9165L37.8513 12.704L37.8816 12.5826L37.9423 12.3701L37.9727 12.2791L38.0334 12.0666L38.0638 11.9148L38.1245 11.672V11.5506L38.1548 11.4292V11.2167L38.2155 11.0953L38.2459 10.9131L38.2762 10.7917L38.3369 10.6096L38.3673 10.5185L38.3369 10.3971L38.3673 10.1846L38.428 9.94181L38.4584 9.75969L38.4887 9.60792L38.5494 9.4258L38.5798 9.24368L38.6101 9.12226L38.6405 9.0312L38.6708 8.81872L38.7012 8.72766V8.6366L38.7922 8.45448L38.8226 8.36341L38.8529 8.242L38.7315 7.90811L38.7619 7.75634L38.8529 7.57421L38.8833 7.4528L38.9137 7.30103V7.08855L38.944 6.96714L39.0047 6.84572V6.72431L39.0654 6.60289V6.48148L39.0958 6.36006L39.1261 6.14758L39.1868 5.96546L39.2476 5.81369V5.63157L39.2779 5.51015L39.3083 5.41909L39.3993 4.96378V4.84237L39.46 4.6906L39.4904 4.53883L39.5207 4.32635L39.5511 4.20494L39.5814 4.11388L39.6118 3.99246L39.6422 3.9014L39.6725 3.77998L39.7029 3.56751L39.7332 3.38539L39.7939 3.17291V3.05149L39.8546 2.83902L39.885 2.74795L39.9457 2.65689L40.0368 2.47477L40.1885 2.44442L40.401 2.41406L40.6742 2.44442H40.8259H40.8563L41.1598 2.47477L41.342 2.44442L41.5848 2.47477H41.7973L41.9794 2.53548L42.0705 2.68725L42.1008 2.80866L42.1615 2.96043L42.1919 3.14255L42.2222 3.32468L42.2829 3.53715L42.3436 3.93175L42.4044 4.17458L42.4651 4.44777L42.5258 4.66025L42.5865 4.99414L42.6168 5.11555L42.6472 5.23697L42.6775 5.4798L42.7382 5.69228V5.78334L42.7989 5.96546V6.08688L42.8293 6.269L42.89 6.51183L42.9204 6.78501L42.9811 7.0582L43.0114 7.30103L43.0418 7.51351L43.0721 7.63492L43.1328 8.05988L43.1935 8.42412L43.2239 8.78837V8.90978L43.2543 9.0312L43.2846 9.21332L43.3453 9.63828L43.406 10.0025H43.4667L43.4971 9.66863L43.5274 9.27403V9.06155L43.5881 8.30271L43.6489 7.96881V7.42245L43.7096 7.20997L43.7399 7.11891L43.7703 6.99749L43.8006 6.87608L43.831 6.6636L43.8613 6.57254L43.8917 6.36006V6.269L43.9524 6.05652V5.8744L43.9827 5.69228V5.57086L44.0738 5.38874L44.0435 5.26732L44.1042 4.96378V4.87272L44.1649 4.66025L44.1952 4.53883L44.2256 4.44777L44.2559 4.23529L44.2863 4.11388L44.347 3.9014L44.3774 3.77998L44.4381 3.65857V3.5068L44.4684 3.41574L44.5291 3.17291L44.5898 2.83902L44.7112 2.62654L44.7719 2.56583L45.0755 2.50512L45.4094 2.53548L45.5308 2.50512H45.6826L45.7129 2.44442H45.8647L46.0772 2.41406L46.2896 2.47477L46.3807 2.53548L46.4111 2.65689V2.77831L46.3503 2.99079L46.3807 3.1122L46.32 3.47645L46.2896 3.68892L46.1986 4.08352L46.1379 4.26565L46.0772 4.56918L46.0468 4.6906L45.9861 5.02449L45.9254 5.26732L45.895 5.51015L45.8343 5.66192L45.804 5.78334L45.7736 5.90475V6.11723L45.7433 6.23865L45.6826 6.72431L45.6219 6.87608L45.5915 7.0582L45.5611 7.17962L45.5308 7.30103L45.4701 7.51351L45.4397 7.63492L45.379 7.8474L45.3487 8.05988L45.3183 8.18129L45.3487 8.33306L45.3183 8.42412L45.4094 8.51518L45.379 8.60624L45.3487 8.72766L45.3183 8.81872V9.0312L45.2576 9.12226L45.1969 9.33474L45.1665 9.48651L45.1362 9.63828L45.1058 9.72934L45.0755 9.85075L45.0451 9.94181V10.0329L44.9844 10.2454L44.9541 10.4578L44.9237 10.6096L44.863 10.7614L44.8023 10.9435L44.7719 11.1256L44.7416 11.3381L44.7112 11.5506L44.6505 11.672L44.5898 11.8845V12.1273L44.4988 12.3398V12.4308L44.4684 12.5522L44.4077 12.7647L44.3166 13.2807L44.1649 13.4629L44.0131 13.5843L43.8006 13.6146L43.6185 13.645H43.5578L43.2543 13.6146L43.1328 13.645L42.9811 13.6146L42.89 13.645H42.5561L42.3436 13.6146H42.0705L41.949 13.4932L41.8276 13.2504L41.7366 13.0379L41.7062 12.9468L41.6759 12.7647L41.6455 12.6737L41.6151 12.3398L41.5848 12.2487L41.5241 11.9148L41.4937 11.8238L41.4634 11.6113L41.433 11.3684L41.3723 11.1863L41.3116 10.9435V10.8524L41.2509 10.64L41.2205 10.5489L41.4634 10.3364L41.433 10.2454V10.0025L41.3723 9.66863L41.342 9.36509L41.2813 8.90978L41.1902 8.39377L41.1295 7.93846L41.0384 7.36174L40.9474 6.75466H40.8867L40.8563 7.20997L40.8259 7.54386L40.7956 7.72598L40.7652 7.99917L40.7349 8.39377L40.6135 9.15261L40.5528 9.79004L40.5224 9.88111L40.4617 10.0936L40.4921 10.215L40.4314 10.3971L40.401 10.5185L40.4314 10.64L40.401 10.731L40.3706 10.9435L40.3099 11.1863L40.2492 11.5202L40.2189 11.7327L40.1885 11.8238L40.1582 11.9452L40.0975 12.4005L40.0368 12.613L40.0064 12.7344V12.9468L39.976 13.0379L39.9153 13.3414L39.8546 13.5236L39.9457 13.6753L39.7636 13.736H38.0638L37.8209 13.7057Z" fill="#392C60"/>
<path id="Vector_4" d="M48.0198 13.7056H47.5645L47.352 13.6753H47.2306L47.1091 13.7056L46.927 13.6753L46.8056 13.6449L46.6842 13.6753L46.5628 13.6449L46.4414 13.5235L46.411 13.2807L46.5021 13.0682L46.5324 12.8253L46.5628 12.7039L46.5931 12.4915L46.6235 12.37L46.6842 12.1272L46.7145 12.0058L46.7449 11.8844L46.7753 11.763L46.836 11.5505L46.8056 11.4594L46.8663 11.1559L46.927 10.9738L46.9574 10.822L47.0181 10.6702L47.0484 10.5185L47.0788 10.3363V10.2149L47.1091 10.0935L47.1395 10.0024L47.1699 9.88103L47.1395 9.75961L47.2609 9.39536L47.2913 9.15253V9.12218L47.3216 9.00076L47.352 8.87935L47.3823 8.78829L47.4127 8.57581V8.36333L47.4734 8.15086V8.02944L47.5037 7.81697L47.5645 7.69555V7.48307L47.5948 7.30095L47.6555 7.08847L47.7466 6.876L47.8073 6.5421V6.32963L47.868 6.20821L47.8983 5.99573L47.9287 5.90467L47.8983 5.78326L47.9591 5.60113L47.9894 5.51007L48.0501 5.2976L48.0805 5.17618L48.1412 4.9637L48.1108 4.84229L48.1412 4.72087L48.1715 4.5084L48.2019 4.41734L48.2322 4.20486L48.2929 3.99238L48.3233 3.90132L48.3537 3.81026L48.384 3.62814L48.4144 3.44601L48.4751 3.26389L48.5054 3.02106L48.5358 2.93L48.5661 2.80858L48.6875 2.65681L48.809 2.59611L48.9 2.5354L49.0214 2.50504L49.2643 2.47469L49.416 2.50504H49.6285L49.7499 2.47469H50.5998L50.7213 2.44434L50.9034 2.50504L50.9641 2.65681L50.6605 2.74787V2.96035L50.6302 3.02106L50.5998 3.20318L50.6302 3.29424L50.5695 3.35495V3.50672L50.5088 3.59778L50.4784 3.81026L50.4177 3.96203V4.08344L50.3874 4.1745V4.26557L50.357 4.35663L50.2659 4.78158L50.2356 4.9637L50.2052 5.05477L50.1749 5.23689L50.1445 5.3583L50.1142 5.54043L50.0838 5.66184L50.0535 5.87432L49.9928 6.05644L49.9321 6.26892L49.9017 6.35998L49.841 6.57246L49.7803 6.72423V6.876L49.7499 6.99741L49.7196 7.11883V7.24024L49.6892 7.45272L49.6285 7.60449L49.5375 8.09015L49.4767 8.30263L49.416 8.42404V8.54546L49.3553 8.75793L49.325 8.97041L49.2946 9.15253L49.2339 9.36501V9.48643L49.1732 9.6989V9.82032L49.1429 10.0328L49.1125 10.1239V10.3363L49.0214 10.4881L49.0518 10.6702L48.9911 10.9131L48.9607 11.0345L48.9 11.2469V11.3684L48.8393 11.5808L48.809 11.7933L48.7786 12.0058V12.1272L48.7179 12.3093L48.6572 12.7039L48.5965 12.9164L48.5661 13.1289L48.5054 13.3414L48.4751 13.4628L48.4144 13.6145L48.2322 13.6753H48.1412L48.0198 13.7056Z" fill="#392C60"/>
<path id="Vector_5" d="M52.9674 13.7056L52.846 13.6753L52.7853 13.6449L52.5121 13.5538L52.3907 13.4931L52.2996 13.4324L51.9658 13.2503L51.814 13.0985L51.7229 12.9771L51.6319 12.8861L51.5408 12.7646L51.5104 12.7039L51.389 12.4611L51.2676 12.2486L51.2069 12.0058L51.1766 11.7933L51.1158 11.2469L51.1462 11.1559L51.1766 10.6095L51.2069 10.4577L51.2676 10.0328L51.298 9.82032L51.3283 9.57749L51.3587 9.39536L51.389 9.24359V9.03112L51.4497 8.84899L51.4801 8.72758L51.5104 8.63652L51.5712 8.45439L51.5408 8.33298L51.5712 8.21156L51.6319 8.02944L51.6622 7.90803V7.69555L51.7229 7.48307L51.7533 7.2706L51.814 7.05812L51.8747 6.84564V6.72423L51.905 6.51175L51.9658 6.42069L52.0265 5.96538L52.0568 5.87432L52.0872 5.66184V5.54043L52.1175 5.44937L52.2086 5.23689L52.2389 5.11547L52.2693 4.99406L52.33 4.78158L52.3603 4.66017V4.53875L52.4211 4.32627V4.20486L52.4514 4.1138L52.5121 3.65849L52.6032 3.44601L52.6335 3.35495L52.6639 3.20318L52.6942 2.9907L52.7549 2.77823L52.7853 2.65681L52.8764 2.62646L53.1496 2.59611H53.2406L53.3924 2.56575L54.0602 2.59611L54.2119 2.44434L54.3637 2.47469L54.6065 2.50504L54.7583 2.62646L54.7887 2.86929V3.05141L54.7583 3.14247L54.7279 3.26389L54.7583 3.47637L54.7279 3.59778L54.6976 3.74955L54.6672 3.87097L54.6369 3.99238L54.6065 4.08344V4.20486L54.5458 4.38698L54.5155 4.59946L54.4851 4.72087V4.87264L54.4548 4.99406L54.3637 5.20653L54.3333 5.32795L54.2726 5.57078L54.2423 5.81361L54.2119 5.90467L54.1512 6.02609L54.1209 6.17786L54.0905 6.29927L54.0602 6.42069V6.5421L53.9691 6.75458L53.9388 6.84564L53.9691 7.05812L53.9084 7.20989L53.878 7.36166L53.8477 7.48307L53.8173 7.60449L53.787 7.69555L53.7263 7.87767V8.09015L53.6656 8.30263L53.6352 8.48475L53.5442 9.06147L53.4834 9.39536L53.4531 9.60784L53.3924 9.82032L53.3317 10.2149L53.3013 10.3667L53.271 10.4577L53.2406 10.5792L53.271 10.822V11.0041L53.3013 11.1862L53.4834 11.3987L53.6656 11.4594L53.9995 11.5201L54.3637 11.4594L54.5155 11.338L54.6065 11.2166L54.6672 11.1255L54.7887 10.8827L54.8797 10.7309L54.9101 10.5792L54.9404 10.4881L55.0315 10.1542L55.0922 9.94173L55.1226 9.82032L55.1529 9.66855L55.1833 9.57749L55.2136 9.42572L55.244 9.27395L55.2743 9.15253L55.3047 9.03112L55.335 8.9097L55.3654 8.69723L55.3957 8.54546L55.4564 8.24192L55.4868 8.05979L55.5172 7.93838L55.6082 7.7259V7.60449L55.6386 7.39201L55.6993 7.17953L55.7296 6.99741L55.7903 6.78493L55.8207 6.66352L55.8814 6.45104V6.32963L55.9118 6.11715L55.9421 6.02609V5.81361L56.0332 5.66184L56.0028 5.47972L56.0635 5.26724L56.0939 5.14583L56.1242 4.93335L56.1546 4.81193L56.2153 4.59946L56.2456 4.38698L56.276 4.1745L56.2456 4.05309L56.3367 3.87097L56.3671 3.7799L56.3974 3.59778L56.4278 3.50672L56.4885 3.29424L56.5492 3.08177L56.6099 2.86929L56.6402 2.74787L56.7009 2.62646L57.1866 2.59611H57.308L57.4294 2.62646L57.8848 2.59611H58.0062L58.1276 2.62646H58.249L58.3704 2.59611L58.5222 2.62646L58.6436 2.59611L58.765 2.44434L58.8864 2.47469L59.0078 2.59611L59.0382 2.83894L58.9471 3.05141L58.9168 3.29424L58.8864 3.41566L58.8561 3.62814L58.8257 3.74955L58.765 3.96203L58.7347 4.08344L58.7043 4.20486L58.6739 4.32627L58.6132 4.53875L58.6436 4.62981L58.5829 4.81193V4.903L58.5222 5.08512L58.4918 5.23689L58.4311 5.38866L58.4008 5.54043L58.3401 5.72255V5.84397L58.3097 5.96538L58.2793 6.05644L58.249 6.17786L58.2793 6.29927L58.1579 6.66352L58.0972 6.90635V6.99741L58.0365 7.20989L58.0062 7.30095L57.9758 7.51343L57.9455 7.7259L57.8848 7.93838V8.05979L57.8544 8.27227L57.7937 8.39369L57.7633 8.60616L57.733 8.78829L57.6723 9.00076L57.6116 9.21324L57.5812 9.33466L57.5205 9.54713V9.57749L57.4598 9.75961L57.3991 9.97209V10.0631L57.3687 10.1846L57.308 10.3667L57.2777 10.5185V10.6399L57.2473 10.7309L57.217 10.8523L57.1563 11.0345L57.0955 11.2469L57.0348 11.5201L56.9438 11.6112L56.8831 11.8237L56.7617 12.0361L56.7009 12.1272L56.6099 12.3397L56.5492 12.4611L56.4581 12.5825L56.3974 12.7343L56.3063 12.8861L56.1546 13.0075L56.0332 13.1592L55.8814 13.2503L55.76 13.3414L55.5779 13.4324L55.4868 13.4931L55.244 13.5842L55.1529 13.6145L55.1226 13.6753L54.9708 13.7056L54.8797 13.736L54.5458 13.7663H54.1816L53.9388 13.7967H53.6049L52.9674 13.7056Z" fill="#392C60"/>
<path id="Vector_6" d="M61.1022 13.8881L60.9808 13.8578H60.829L60.6469 13.8274L60.4951 13.7971L60.3737 13.7667L60.1309 13.6453L59.9488 13.5846L59.797 13.4632L59.6149 13.3418L59.4631 13.1293L59.3113 12.9472L59.1596 12.7347L59.0382 12.4615L59.0078 12.3401L58.8864 12.0365L58.856 11.9455L58.7953 11.733L58.765 11.6419L58.7346 11.3991V10.9135L58.765 10.6403L58.7346 10.5189L58.765 10.276L58.7953 10.1546L58.8257 10.0332L58.8864 9.79037L59.0989 9.66895L59.4935 9.6386L59.6756 9.66895H60.5862L60.7987 9.6993L60.9201 9.91178V10.5189L60.8897 10.6403V10.9742L60.9201 11.3384L60.9808 11.4902L61.1022 11.733L61.254 11.8848L61.4665 11.9455H61.6182L61.7397 11.9151L61.9218 11.8544L62.0128 11.7634L62.1039 11.6116L62.1646 11.4902L62.2253 11.3081L62.2557 11.1259L62.286 10.9742V10.8527L62.2557 10.6403V10.3974L62.195 10.0939V10.0028L62.1343 9.76001L62.0128 9.54753L61.8914 9.36541L61.77 9.15294L61.7093 9.06187L61.6789 8.97081L61.6182 8.87975L61.4968 8.75833L61.4058 8.63692L61.2236 8.42444L61.1326 8.33338L61.0719 8.24232L60.8897 8.02984L60.7076 7.81737L60.5558 7.60489L60.4041 7.42277L60.2523 7.30135L60.1613 7.17994L60.0702 7.02817L59.9791 6.69427L59.9184 6.54251L59.8274 6.42109L59.7667 6.29967L59.7363 6.17826L59.6756 5.96578V5.78366L59.6452 5.66224L59.6756 5.54083V5.08552L59.7059 4.75163L59.7667 4.63021L59.797 4.41774L59.8577 4.29632L59.9184 4.14455L59.9488 3.99278L60.0398 3.78031L60.1005 3.65889L60.1613 3.53748L60.222 3.44641L60.3434 3.29465L60.4041 3.23394L60.4951 3.08217L60.5862 2.99111L60.7683 2.83934L61.0719 2.62686L61.3147 2.5358L61.4968 2.44474L61.8004 2.38403L62.0735 2.29297H62.5592L62.9538 2.32332H63.0752L63.227 2.35368L63.4698 2.38403L63.743 2.47509L63.8644 2.50545L63.9251 2.56615L64.1073 2.65721L64.2287 2.74828L64.3501 2.80898L64.5322 2.96075L64.5929 3.02146L64.7447 3.20358L64.8054 3.29465L64.9268 3.47677L64.9875 3.56783L65.0179 3.74995L65.0786 3.87137L65.1696 4.26597V4.63021L65.2 4.96411L65.1696 5.23729L65.1089 5.6926L65.0482 6.05684L64.8661 6.14791L64.5626 6.17826H63.6519L63.4395 6.14791H63.227L63.1056 6.02649L63.0752 5.81401L63.1056 5.6926L63.1663 5.20694V4.84269L63.1359 4.66057L63.0752 4.56951L62.9234 4.41774L62.7717 4.29632L62.5592 4.26597L62.3771 4.32668L62.195 4.41774L62.1039 4.53915L62.0432 4.66057L61.9825 4.81234L61.9521 4.93375L61.8914 5.08552L61.8611 5.298V5.51048L61.8914 5.63189L62.0128 5.93543L62.1343 6.14791L62.195 6.26932L62.3164 6.4818L62.4985 6.69427L62.711 6.9371L62.7717 7.02817L62.8627 7.11923L62.9234 7.24064L62.9842 7.33171L63.0752 7.39241L63.227 7.51383L63.2877 7.60489L63.3788 7.6656L63.4395 7.75666L63.5912 7.90843L63.6823 8.0602L63.8644 8.24232L63.9858 8.5155L64.1376 8.69763L64.168 8.78869L64.2894 9.12258L64.3804 9.33506L64.4715 9.66895L64.5018 9.79037L64.5322 9.91178L64.5626 10.0332L64.6536 10.3064L64.684 10.3974L64.6536 10.6099L64.6233 10.701L64.6536 10.8224L64.6233 10.9438V11.3991L64.5626 11.6116L64.5322 11.7027V11.9455L64.4715 12.158L64.4411 12.2794L64.4108 12.4311L64.3197 12.6436L64.168 12.9168L64.0769 12.9775L63.9858 13.1293L63.8948 13.19L63.7734 13.3418L63.6823 13.4025L63.5609 13.5239L63.4091 13.6149L63.2573 13.7364L63.0752 13.7971L62.9842 13.8578L62.7413 13.9488L62.6199 13.9792L62.4074 14.0399L62.286 14.0703L62.1343 14.0399L62.0128 14.0703H61.8307L61.7093 14.1006L61.5272 14.131L61.1022 13.8881Z" fill="#392C60"/>
</g>
<g id="Group_3">
<path id="Vector_7" d="M24.1919 15.4663H23.7973H23.7366L23.6152 15.4967L23.4938 16.1644L23.5242 16.1948L23.4331 16.4983V16.5287L23.4027 16.8626L23.342 17.1054V17.1661L23.3117 17.2268V17.2875V17.3179L23.2813 17.409L23.251 17.7732L23.1903 17.8946L23.2206 17.925L23.0992 18.4713V18.5017L23.0081 18.957V19.0481L22.9778 19.1088H23.0081H23.1296H23.1903H23.2813H23.4331H23.5545L23.7063 18.4106L23.6759 18.3803L23.7366 18.1982V18.1071L23.767 18.0464V17.8339L23.858 17.409V17.3786L23.8884 17.2572L23.9491 16.984V16.9536V16.8626V16.8019L24.1009 16.1341L24.1312 15.952V15.9216V15.8913V15.8306L24.1616 15.7698L24.1919 15.5877V15.4663Z" fill="#392C60"/>
<path id="Vector_8" d="M26.7114 16.6501V16.6198L26.681 16.4983L26.7114 16.468V16.3162V16.2859L26.5596 15.8002L26.3775 15.5877L26.2864 15.527L26.0436 15.4967L25.8614 15.4663H25.7704H25.7097H25.4668H25.2847H25.1937H25.1026L25.0115 15.952V15.9823L24.9508 16.1948L24.9205 16.3466V16.4376L24.8901 16.559L24.8598 16.7715V16.8019L24.8294 16.9233L24.7991 16.984L24.7384 17.2875V17.409L24.6473 17.925V18.0464L24.6169 18.1071L24.5866 18.3196V18.3499L24.5259 18.6535V18.6838L24.4348 19.1088V19.1391H24.4652H24.708L24.8294 19.1695H24.8598H24.9205H24.9508H25.0722H25.133H25.224H25.3454H25.4365H25.5883H25.6186L25.8311 19.1391L25.8918 19.1088L26.0132 19.0481L26.1346 18.957L26.256 18.7749V18.7445L26.3168 18.6535L26.4685 18.1982L26.5292 18.0767V17.9857L26.5899 17.7125L26.6203 17.5L26.6506 17.3786V17.3482L26.681 17.2572L26.7114 16.9536L26.7417 16.8322V16.8019L26.7114 16.6501ZM26.165 17.1661L26.1043 17.3179L26.0132 17.7428L25.7704 18.3803L25.6793 18.5017L25.5579 18.5624L25.4668 18.5928H25.2544L25.0722 18.532L25.1937 17.8339V17.8036L25.224 17.6821V17.6214L25.2544 17.4393V17.409L25.2847 17.2875L25.3454 17.0751L25.3758 16.8929V16.8626L25.4061 16.8019V16.7715L25.4365 16.7108L25.4668 16.4376L25.5883 16.043H25.7097L25.8918 16.0734L26.0739 16.1341L26.1346 16.1948L26.165 16.2555L26.2257 16.4376V16.5894V16.7715V16.8929L26.1953 17.1661H26.165Z" fill="#392C60"/>
<path id="Vector_9" d="M29.0183 15.436V15.4664H28.7148L28.5327 15.436L27.9559 15.4664H27.8952H27.8345H27.7738H27.7131L27.6828 15.4967V15.5575L27.6524 15.8306V15.8913L27.6221 16.0128L27.5917 16.1645V16.1949L27.531 16.4984V16.6198L27.5006 16.802V16.8323L27.4703 16.9537L27.2578 17.8947V17.9554L27.2275 18.1679L27.1667 18.5625V18.5928L27.1364 18.7446V18.8053L27.0757 19.1089H27.2882H27.3489H27.4703H28.4416L28.5327 18.5625H28.472L28.2595 18.5321H27.9559H27.8345L27.7435 18.4411V18.35L27.8649 17.6519L27.9256 17.5001H28.5023L28.5934 16.9841V16.9537L28.4113 16.9841L27.9863 16.9537L28.0167 16.6805V16.6502L28.0774 16.3467V16.2859V16.2556L28.1077 16.1342L28.1381 15.9824H28.3505L28.9576 15.9521L29.0487 15.4664L29.0183 15.436Z" fill="#392C60"/>
<path id="Vector_10" d="M30.6878 19.1088H31.2038L31.0824 15.4663H30.536L29.8379 17.0751L29.8075 17.1358L29.7468 17.2572L29.6557 17.6214L29.1094 18.9874L29.0183 19.1088H29.4736H29.504H29.6254L29.8986 18.5017L30.6574 18.532L30.6878 18.6838V18.957V19.0177V19.1088ZM30.5664 18.016H30.1718L30.0503 17.8946L30.2021 17.4697L30.4753 16.6501L30.7181 16.559V16.8322V17.2572V17.409V17.4697V17.5304V17.5911V17.7125V17.7732V17.8036V17.9553L30.5664 18.016Z" fill="#392C60"/>
<path id="Vector_11" d="M33.6624 16.4681L33.6928 16.1646V15.9521L33.6321 15.7397L33.4803 15.5575L33.4196 15.5272L33.3892 15.4968L33.2071 15.4361L33.0857 15.4058H33.0553H32.7822L32.4786 15.4968L32.2965 15.6486L32.2661 15.7093L32.2054 15.8004L32.1447 15.9521L32.084 16.1646V16.2557V16.4074V16.4681L32.1447 16.711L32.2358 16.9235L32.3572 17.0145L32.9036 17.8341L32.9339 18.0465L32.9643 18.259L32.9339 18.4108L32.8429 18.6233L32.7822 18.684L32.5697 18.7143L32.4483 18.684L32.3572 18.5626L32.2965 18.4108L32.2661 18.1376V18.1073V17.9251H31.9626H31.9019L31.7805 17.9555L31.7501 18.1073L31.7805 18.1376L31.7501 18.259L31.7805 18.5322L31.8108 18.6233L31.8715 18.8357L32.0233 19.0179L32.1447 19.1089L32.3876 19.1696H32.4179H32.4483L32.6 19.2L32.7822 19.1696H32.8125L33.116 19.0786L33.2982 18.9268L33.3285 18.8661L33.3892 18.8357L33.4803 18.5626V18.4411V18.3501V18.2287V18.168V18.1376L33.5106 18.0465L33.3285 17.5002L33.2982 17.4395L33.2678 17.3484L33.2071 17.2877L33.116 17.1663H33.0857L33.0553 17.1359L32.9643 17.0145L32.8732 16.9235L32.7518 16.7413L32.6304 16.5592L32.6 16.3467L32.5697 16.286L32.6 16.195L32.6607 15.9521L32.7214 15.8914L32.9036 15.8004L33.025 15.8307L33.2071 15.9825V16.0432L33.2375 16.1039V16.2557L33.2071 16.4681H33.6624Z" fill="#392C60"/>
<path id="Vector_12" d="M37.1227 15.4663H35.8175V15.4967V15.5574L35.7871 15.6788L35.7568 15.7698V15.8306L35.7264 15.8609L35.6657 16.2859L35.6354 16.4073V16.4376V16.468V16.4983L35.5747 16.8322V16.8626L35.4836 17.2875V17.3179L35.4532 17.409V17.5607V17.6214L35.4229 17.7428V17.7732L35.3622 18.016V18.1071L35.3318 18.3499L35.3015 18.532L35.2711 18.6838L35.2104 18.9874V19.0784L35.1801 19.1088H35.2104H35.4229H35.5747H35.7264L35.7568 18.9874V18.9266V18.8963V18.8659L35.7871 18.7749L35.8175 18.7142V18.5624V18.532L35.8478 18.4106V18.3803L35.9085 18.1071V18.0464L35.9996 17.6518V17.5607L36.2424 17.5911L36.3335 17.5607H36.546H36.6067L36.6977 17.0144H36.546L36.0907 16.984L36.1514 16.7412L36.2728 15.9823H37.062L37.0923 15.8306L37.1227 15.4967V15.4663Z" fill="#392C60"/>
<path id="Vector_13" d="M38.5797 18.6231V18.5928H37.9726L37.8816 18.5017L37.9119 18.2589V18.1374V18.1071L37.9726 17.7732V17.7428L38.1244 16.9233V16.8626V16.8322V16.7715L38.1548 16.7412L38.1851 16.4983V16.4376L38.2155 16.3769L38.2458 16.1037L38.3976 15.4663H38.3672H37.8209L37.7298 16.0127V16.0734L37.6994 16.1037L37.6691 16.2555L37.6994 16.2859L37.6387 16.468V16.4983L37.6084 16.7108V16.7412L37.578 16.8019V16.9233L37.5477 17.1358L37.3959 17.8643V17.9553L37.3656 18.0767V18.1374L37.3352 18.2285V18.2589L37.2745 18.4106L37.2441 18.6838V18.7445V18.8356L37.1531 19.1088H37.1834H37.2441H38.003H38.094H38.1548H38.2762L38.4886 19.0784L38.519 18.957V18.8963L38.5493 18.8659L38.5797 18.6231Z" fill="#392C60"/>
<path id="Vector_14" d="M41.1901 15.4664H41.0991H40.9169L40.7955 15.436L40.6741 15.4664L40.583 15.5878L40.2492 16.377L40.067 16.7716L39.8849 16.7109L39.8546 16.6502L39.7938 16.1645L39.8242 16.1342L39.7635 15.9217V15.8913L39.7028 15.4664H39.1868L39.2778 16.1038V16.1949V16.2252L39.3082 16.4074L39.3385 16.4681L39.4296 17.0751V17.1055L39.4903 17.4697V17.5305L39.5207 17.6822L39.4296 18.1679V18.1982L39.3689 18.35L39.2778 18.9571V18.9874L39.2475 19.1089H39.7938L39.8849 18.6232V18.5928L39.976 18.1679V18.1375L40.067 17.7126L40.1277 17.6519L40.1581 17.5305L41.2508 15.4967V15.4664H41.1901Z" fill="#392C60"/>
<path id="Vector_15" d="M44.5291 15.4664H44.1952L44.1345 15.436L44.0435 15.4664L43.9524 15.436L43.4971 15.4664L43.4364 15.436L42.9507 15.4664L42.9204 15.436L42.7989 15.4664V15.4967V15.5878L42.7382 15.6789V15.7396L42.7079 15.861V15.9521V15.9824L42.7686 16.0128L42.8293 15.9824L42.9204 16.0128H43.315L43.2846 16.4074V16.4377L43.2543 16.4984V16.5591L43.2239 16.7109V16.7716L43.1935 16.893V16.9234L43.0721 17.4394V17.4697L43.0114 17.7429V17.834L42.9811 17.8947L42.9204 18.2893V18.3196L42.89 18.4411V18.4714L42.8293 18.8964L42.7989 19.0178L42.7686 19.1088L42.7989 19.1392L42.8293 19.1088H43.315L43.3757 18.7446V18.6839L43.4971 18.1072V18.0768L43.5578 17.8036V17.7733L43.6185 17.5305L43.5881 17.5001L43.6185 17.4394L43.6489 17.3483V17.2876V17.2269V17.1662L43.6792 17.1359L43.7703 16.7412V16.7109L43.8006 16.5895L43.7703 16.5288L43.831 16.4377L43.8917 16.1645L43.8613 16.1342L43.922 16.0128L44.0435 15.9824L44.347 16.0128L44.4381 15.9824H44.4684V15.9217L44.5291 15.6485V15.6182L44.5595 15.5271V15.4664H44.5291Z" fill="#392C60"/>
<path id="Vector_16" d="M46.7449 17.1663V17.1056L46.7752 17.0449V17.0145L46.8359 16.5896V16.4985L46.8663 16.3467V16.2557V16.1343L46.8056 15.8307L46.7449 15.7093L46.5931 15.5575L46.3806 15.4665L46.3199 15.4361L46.0771 15.4058L45.6218 15.4968L45.379 15.6486L45.1665 15.9218L45.1361 15.9825L45.0451 16.1343L44.9237 16.4985L44.8629 16.8324V16.8931L44.8326 16.9842V17.0145L44.7719 17.2877V17.3181L44.7112 17.5912V17.6216L44.6808 17.8341V17.8644L44.6505 17.9555V18.0465V18.1376L44.6201 18.1983L44.7112 18.7447L44.8326 18.9268L44.8933 18.9875L45.0754 19.1089L45.379 19.1696H45.4397L45.5914 19.2L45.9557 19.1393L46.0468 19.0786L46.3199 18.775L46.411 18.6536L46.5324 18.3501L46.6235 18.0465V18.0162L46.7145 17.6216L46.7449 17.1663ZM46.2289 16.4985V16.5592L46.1985 16.802V16.8324L46.1378 17.0752V17.1966L46.1075 17.227V17.3181L46.0771 17.4395L46.0468 17.6823V17.7734L46.0164 17.8341L45.9253 18.2894V18.3197L45.8646 18.4715L45.7736 18.5929L45.6218 18.684L45.5004 18.7143L45.3183 18.684L45.2272 18.6233L45.1361 18.5019L45.1058 18.4108V18.259L45.0754 18.2287L45.1058 18.1376L45.0754 18.0769L45.1058 17.9858L45.1361 17.8948V17.8644L45.1665 17.743V17.6823V17.6216L45.1968 17.5002V17.4698V17.4091V17.3788L45.379 16.5592L45.4397 16.3467L45.5914 16.0432L45.6825 15.9825L45.8343 15.9218H45.986L46.1378 16.0128L46.2289 16.1343L46.2592 16.2557L46.2289 16.4985Z" fill="#392C60"/>
<path id="Vector_17" d="M50.4785 15.4664H50.1446L50.0839 15.436L49.9928 15.4664L49.9017 15.436L49.4464 15.4664L49.3857 15.436L48.9001 15.4664L48.8697 15.436L48.7483 15.4664V15.4967V15.5878L48.6876 15.6789V15.7396L48.6572 15.861L48.6876 15.9521L48.6572 15.9824L48.7179 16.0128L48.7786 15.9824L48.8697 16.0128H49.2643L49.234 16.4074V16.4377V16.4984L49.2036 16.5591L49.1732 16.7109V16.7716L49.1429 16.893V16.9234L49.0215 17.4394L49.0518 17.4697L48.9608 17.7429V17.834L48.9304 17.8947L48.8697 18.2893V18.3196L48.8394 18.4411V18.4714L48.7786 18.8964L48.7483 19.0178L48.7179 19.1088L48.7483 19.1392L48.7786 19.1088H49.2643L49.325 18.7446V18.6839L49.4464 18.1072V18.0768L49.5071 17.8036V17.7733L49.5678 17.5305V17.5001V17.4394L49.5982 17.3483V17.2876L49.6285 17.2269V17.1662V17.1055L49.7196 16.7412V16.7109L49.75 16.5895V16.5288L49.7803 16.4377L49.841 16.1645L49.8107 16.1342L49.8714 16.0128L49.9928 15.9824L50.2963 16.0128L50.3874 15.9824H50.4177L50.4481 15.9217L50.4785 15.6485V15.6182L50.5088 15.5271V15.4664H50.4785Z" fill="#392C60"/>
<path id="Vector_18" d="M52.9067 16.0128L52.9674 15.8003L52.9371 15.7699L52.9674 15.6789L52.9978 15.5575L52.9674 15.5271L52.9978 15.4664H52.9371H52.7853H52.6942H52.4817V15.4967L52.4514 15.6182L52.3907 15.8003V15.8306V15.9217V16.0735L52.3603 16.1342L52.33 16.2556V16.2859L52.2996 16.5288V16.5591L52.2693 16.7109V16.7716L52.2086 16.893V16.9841H51.9961H51.9657H51.8747H51.8443L51.4497 16.9537L51.5104 16.7412V16.7109L51.5408 16.5895L51.5104 16.5288L51.5711 16.377L51.6622 15.8306L51.7229 15.4664L51.6925 15.436L51.6318 15.4664H51.1462L51.1158 15.6182V15.6789L51.0855 15.8003V15.8913L51.0551 15.9521V16.0431L50.7819 17.5305V17.5608L50.7212 17.834V17.8643L50.6909 18.0161L50.6302 18.3196L50.6605 18.35L50.6302 18.4411L50.5998 18.5018V18.5625L50.5695 18.6232L50.5998 18.6839L50.5391 18.775L50.5695 18.8053L50.4784 19.1089H50.5087H50.6605H50.7212H50.8123H50.9033H51.0551L51.0855 18.866L51.2069 18.3196V18.2893L51.2676 17.9858V17.8947L51.2979 17.834L51.3587 17.5305L51.6318 17.5608L51.814 17.5305L51.8747 17.5608H51.9354L52.0568 17.5305L52.0264 17.7429V17.7733L51.9961 17.9858V18.0161L51.8747 18.7446L51.8443 18.9267V19.0178L51.814 19.1089H51.8747H52.0264H52.3907L52.421 18.8357L52.4817 18.5928L52.5425 18.2286V18.1982L52.5728 18.0161V17.9858L52.6032 17.8643V17.834L52.6335 17.6215L52.6942 17.3787V17.2876L52.7246 17.2269L52.6942 17.1055L52.7246 17.0448L52.8156 16.4984L52.846 16.4074L52.9067 16.0431V16.0128Z" fill="#392C60"/>
<path id="Vector_19" d="M55.2136 15.436L55.1832 15.4664H54.8797L54.6976 15.436L54.1209 15.4664H54.0602H53.9994H53.9387H53.878L53.8477 15.4967L53.878 15.5575L53.8173 15.8306V15.8913L53.787 16.0128L53.7566 16.1645V16.1949L53.6959 16.4984V16.6198L53.6656 16.802V16.8323L53.6352 16.9537L53.4227 17.8947L53.4531 17.9554L53.3924 18.1679L53.3317 18.5625V18.5928L53.3013 18.7446V18.8053L53.2406 19.1089H53.4531H53.5138H53.6352H54.6065L54.6976 18.5625H54.6369L54.4244 18.5321H54.1209H53.9994L53.9084 18.4411V18.35L54.0298 17.6519L54.0905 17.5001H54.6672L54.7583 16.9841V16.9537L54.5762 16.9841L54.1512 16.9537L54.1816 16.6805V16.6502L54.2423 16.3467V16.2859V16.2556L54.2726 16.1342L54.303 15.9824H54.5155L55.1225 15.9521L55.2136 15.4664V15.436Z" fill="#392C60"/>
<path id="Vector_20" d="M58.6436 15.4664H58.3097L58.249 15.436L58.158 15.4664L58.0669 15.436L57.6116 15.4664L57.5509 15.436L57.0652 15.4664L57.0349 15.436L56.9134 15.4664V15.4967V15.5878L56.8527 15.6789V15.7396L56.8224 15.861V15.9521V15.9824L56.8527 16.0128L56.9134 15.9824L57.0349 16.0128H57.4295L57.3688 16.4074L57.3991 16.4377L57.3688 16.4984V16.5591L57.3384 16.7109V16.7716L57.308 16.893V16.9234L57.1866 17.4394V17.4697L57.1259 17.7429V17.834L57.0956 17.8947L57.0349 18.2893V18.3196L57.0045 18.4411V18.4714L56.9438 18.8964L56.8831 19.0178V19.1088L56.9134 19.1392L56.9438 19.1088H57.4295L57.4902 18.7446V18.6839L57.6116 18.1072V18.0768L57.6723 17.8036V17.7733L57.7026 17.5305V17.5001L57.733 17.4394V17.3483L57.7634 17.2876V17.2269V17.1662L57.7937 17.1359L57.8544 16.7412V16.7109L57.9151 16.5895L57.8848 16.5288L57.9455 16.4377L57.9758 16.1645V16.1342L58.0365 16.0128L58.158 15.9824L58.4311 16.0128L58.5526 15.9824H58.5829V15.9217L58.6436 15.6485V15.6182L58.674 15.5271H58.6436L58.674 15.4664H58.6436Z" fill="#392C60"/>
<path id="Vector_21" d="M60.8594 17.1663V17.1056L60.8897 17.0449V17.0145L60.9504 16.5896V16.4985L60.9808 16.3467V16.2557V16.1343L60.9201 15.8307L60.8594 15.7093L60.7076 15.5575L60.4951 15.4665L60.4344 15.4361L60.1916 15.4058L59.7363 15.4968L59.4935 15.6486L59.281 15.9218L59.2506 15.9825L59.1596 16.1343L59.0382 16.4985L58.9775 16.8324V16.8931L58.9471 16.9842V17.0145L58.8864 17.2877V17.3181L58.8257 17.5912V17.6216L58.7953 17.8341V17.8644L58.765 17.9555V18.0465V18.1376L58.7346 18.1983L58.8257 18.7447L58.9471 18.9268L59.0078 18.9875L59.1899 19.1089L59.4935 19.1696H59.5542L59.7059 19.2L59.9791 19.1393L60.0702 19.0786L60.3434 18.775L60.4344 18.6536L60.5558 18.3501L60.6469 18.0465V18.0162L60.738 17.6216L60.8594 17.1663ZM60.3434 16.4985V16.5592L60.313 16.802V16.8324L60.2523 17.0752V17.1966L60.222 17.227V17.3181L60.1916 17.4395L60.1613 17.6823V17.7734L60.1309 17.8341L60.0398 18.2894V18.3197L59.9791 18.4715L59.8881 18.5929L59.7363 18.684L59.6149 18.7143L59.4328 18.684L59.3417 18.6233L59.2506 18.5019L59.2203 18.4108V18.259L59.1899 18.2287L59.2203 18.1376L59.1899 18.0769L59.2203 17.9858L59.2506 17.8948V17.8644L59.281 17.743V17.6823V17.6216L59.3113 17.5002V17.4698V17.4091V17.3788L59.4935 16.5592L59.5542 16.3467L59.7059 16.0432L59.797 15.9825L59.9488 15.9218H60.1005L60.2523 16.0128L60.3434 16.1343L60.3737 16.2557L60.3434 16.4985Z" fill="#392C60"/>
<path id="Vector_22" d="M63.5609 16.0734V16.0127L63.4395 15.6484L63.3484 15.5574L63.1966 15.4967L62.9234 15.4663H62.8931H62.802H62.6806H62.6199H62.2557H62.1646H62.1039H61.8611L61.8307 15.6484L61.7093 16.2252L61.6789 16.4073V16.4376V16.4983L61.6182 16.8322V16.8929L61.2236 18.9266V19.0177V19.0784V19.1088H61.2843H61.3754H61.7396V19.0481L61.77 18.9874V18.957L61.8004 18.8963V18.8356L61.8307 18.8052V18.7749L61.8611 18.6838V18.6231L61.9521 18.2589L62.0128 17.8643V17.7125L62.2253 17.7428H62.3467H62.4681L62.802 17.7125L63.0449 17.5911L63.1359 17.5L63.1663 17.4393L63.227 17.3786L63.4698 16.8626L63.5912 16.2555L63.5609 16.0734ZM63.0145 16.4376L62.9538 16.7108L62.802 17.0447L62.6503 17.1661L62.5592 17.1965L62.4074 17.2268H62.1039L62.1342 16.9536V16.9233L62.1646 16.7108V16.6805L62.286 16.043L62.3467 15.9216L62.4378 15.8913H62.5896L62.8627 15.9216L62.9538 15.9823L63.0145 16.0734L63.0449 16.1644L63.0145 16.4376Z" fill="#392C60"/>
</g>
<g id="Group_4">
<path id="Vector_23" d="M13.5682 4.44795L13.5378 4.14441L13.4771 3.90158L13.4468 3.78016L13.4164 3.6891L13.3557 3.59804L13.2646 3.38556L13.2343 3.2945L13.1432 3.20344L12.9611 3.05167L12.779 2.8999L12.6879 2.80884L12.5665 2.71778L12.2933 2.53565L12.0505 2.41424L11.9594 2.38389L11.838 2.35353L11.7166 2.29282L11.4738 2.26247H11.2916L11.2006 2.23212L10.897 2.20176L10.7149 2.23212L10.5024 2.26247L10.1989 2.29282L10.0471 2.32318L9.80429 2.38389H9.71323L9.4704 2.44459L9.28828 2.53565L9.10615 2.65707L8.95439 2.74813L8.83297 2.80884L8.62049 2.96061L8.37766 3.17308L8.2866 3.26415L8.19554 3.35521L8.07412 3.53733L7.95271 3.74981L7.892 3.84087L7.86165 3.96228L7.70988 4.17476L7.64917 4.29618L7.55811 4.4783L7.46705 4.72113L7.40634 4.90325L7.34563 5.02467L7.25457 5.23715L7.22422 5.44962L7.13315 5.57104L7.07245 5.96564L7.04209 6.17811L7.01174 6.26918L6.98139 6.39059L6.95103 6.57272V6.78519L6.92068 6.90661L6.82962 7.05838L6.85997 7.14944L6.82962 7.27085V7.36192L6.79926 7.48333L6.73856 7.57439V7.69581L6.67785 7.90828V8.12076L6.61714 8.30288L6.55643 8.60642V8.69748L6.52608 8.90996L6.55643 9.00102L6.49572 9.2135V9.33491L6.46537 9.54739V9.66881L6.40466 9.88128V9.97234C6.43502 10.0027 6.49572 10.0331 6.52608 10.0938C6.58679 10.1545 6.61714 10.2759 6.7082 10.2759C6.76891 10.2759 6.85997 10.2152 6.95103 10.1545C7.01174 10.1241 7.07245 10.0938 7.13315 10.0331C7.19386 9.97234 7.25457 9.94199 7.31528 9.88128C7.37599 9.82057 7.43669 9.79022 7.4974 9.72951C7.55811 9.66881 7.58846 9.57774 7.64917 9.51704C7.67952 9.48668 7.70988 9.45633 7.77059 9.42598C7.74023 9.33491 7.74023 9.24385 7.77059 9.15279C7.83129 9.00102 8.01342 8.90996 8.16519 8.97067C8.16519 8.97067 8.16519 8.97067 8.19554 8.97067C8.25625 8.90996 8.31695 8.84925 8.34731 8.78854C8.40802 8.72784 8.46872 8.66713 8.52943 8.60642C8.59014 8.54571 8.65085 8.51536 8.71155 8.45465C8.77226 8.39394 8.80262 8.33324 8.86332 8.27253C8.92403 8.21182 8.95439 8.15111 9.01509 8.09041C9.0758 8.0297 9.13651 7.96899 9.16686 7.90828C9.22757 7.84758 9.22757 7.75651 9.25792 7.66545C9.31863 7.60475 9.34899 7.51368 9.40969 7.45298C9.4704 7.39227 9.53111 7.33156 9.56146 7.27085C9.62217 7.21015 9.68288 7.17979 9.74358 7.08873C9.80429 7.02802 9.865 6.96732 9.92571 6.90661C9.98642 6.8459 9.95606 6.72448 10.0168 6.66378C10.0775 6.60307 10.1989 6.60307 10.2596 6.54236C10.3203 6.48165 10.3507 6.39059 10.381 6.32988C10.4417 6.26918 10.4721 6.20847 10.5328 6.14776C10.5935 6.08705 10.6238 6.02635 10.6846 5.93528C10.7453 5.87458 10.7756 5.81387 10.8363 5.75316C10.897 5.69245 10.897 5.60139 10.9274 5.54068C10.9881 5.47998 11.0184 5.41927 11.0792 5.35856C11.1399 5.29785 11.2309 5.2675 11.2613 5.20679C11.322 5.14608 11.413 5.11573 11.4434 5.05502C11.5041 4.99432 11.5041 4.90325 11.5345 4.84255C11.5952 4.78184 11.6559 4.72113 11.7166 4.66042C11.7773 4.59972 11.8076 4.50865 11.838 4.44795C11.8987 4.38724 11.9594 4.32653 12.0201 4.26582C12.0808 4.20512 12.1112 4.14441 12.1719 4.0837C12.2326 4.02299 12.2933 3.93193 12.3237 3.90158C12.4147 3.78016 12.3237 3.65875 12.4147 3.71945C12.5361 3.78016 12.4147 3.74981 12.3237 3.90158C12.2933 3.96228 12.263 4.05335 12.2326 4.11405C12.2022 4.17476 12.1112 4.23547 12.0808 4.29618C12.0505 4.35688 11.9594 4.41759 11.8987 4.4783C11.8684 4.53901 11.8076 4.63007 11.7773 4.69078C11.7469 4.75148 11.7166 4.84255 11.6862 4.93361C11.6559 4.99432 11.6559 5.11573 11.6255 5.17644C11.5952 5.23715 11.5041 5.29785 11.4738 5.35856C11.4434 5.41927 11.413 5.51033 11.3827 5.57104C11.3523 5.63175 11.2309 5.6621 11.2006 5.75316C11.1702 5.81387 11.1095 5.90493 11.0792 5.96564C11.0488 6.02635 11.0184 6.11741 10.9881 6.20847C10.9577 6.26918 10.8363 6.32988 10.806 6.39059C10.7756 6.4513 10.7756 6.57271 10.7149 6.63342C10.6846 6.69413 10.5935 6.75484 10.5631 6.81555C10.5328 6.87625 10.5328 6.99767 10.5024 7.05838C10.4721 7.11908 10.3507 7.14944 10.3203 7.2405C10.29 7.30121 10.29 7.42262 10.2596 7.48333C10.2292 7.54404 10.1989 7.6351 10.1685 7.69581C10.1382 7.75651 10.0471 7.81722 9.98642 7.87793C9.95606 7.93864 9.89535 7.99935 9.865 8.09041C9.83465 8.15111 9.77394 8.21182 9.71323 8.30288C9.59182 8.4243 9.59182 8.51536 9.56146 8.60642C9.53111 8.66713 9.53111 8.78854 9.4704 8.84925C9.44005 8.90996 9.31863 8.94031 9.25792 9.00102C9.22757 9.06173 9.22757 9.15279 9.16686 9.24385C9.13651 9.30456 9.10615 9.39562 9.0758 9.45633C9.04545 9.51704 8.98474 9.6081 8.95439 9.66881C8.92403 9.72951 8.80262 9.75987 8.74191 9.82057C8.71155 9.88128 8.6812 9.97234 8.65085 10.0634C8.62049 10.1241 8.65085 10.2455 8.59014 10.3062C8.55979 10.3669 8.49908 10.4277 8.46872 10.5187C8.43837 10.5794 8.37766 10.6098 8.31695 10.6401C8.43837 10.7615 8.49908 10.9133 8.40802 11.0954C8.34731 11.2776 8.16519 11.3383 7.98306 11.3079C7.98306 11.3383 7.98306 11.3686 7.95271 11.3686C7.92235 11.4293 7.80094 11.49 7.77059 11.5507C7.74023 11.6115 7.74023 11.6722 7.74023 11.7329C7.83129 11.7329 7.92235 11.7329 8.01342 11.7632C8.2866 11.8846 8.40802 12.1882 8.2866 12.4614C8.19554 12.6738 7.98306 12.7953 7.77059 12.7649C7.77059 12.8256 7.80094 12.8863 7.83129 12.947C7.86165 13.0077 7.86165 13.0988 7.92235 13.1595C7.95271 13.2202 8.01342 13.2809 8.07412 13.3416C8.10448 13.4023 8.13483 13.4934 8.19554 13.5541C8.25625 13.6148 8.25625 13.7059 8.31695 13.7666C8.34731 13.7969 8.34731 13.7969 8.34731 13.8273L8.49908 13.8576H8.65085L8.77226 13.888L8.98474 13.8576L9.40969 13.9183L9.77394 13.8576L9.95606 13.7969H10.0775L10.29 13.7362L10.4114 13.7059L10.5328 13.6755L10.897 13.5237L10.9577 13.463L11.1399 13.3416L11.322 13.1899L11.413 13.0988L11.5041 13.0077L11.6862 12.8256L11.7166 12.7345L11.8076 12.6435L11.8684 12.5524L12.0201 12.3399L12.1112 12.2185L12.2326 11.915L12.354 11.7025V11.5507L12.4451 11.4293L12.5058 11.2472V11.1258L12.5665 10.9437L12.6576 10.7615V10.5794L12.7183 10.4884L12.8093 10.3062L12.779 10.2152L12.9307 9.66881L12.9914 9.57774L13.0218 9.36527L13.0522 9.24385V9.09208L13.1129 8.78854L13.1736 8.69748L13.2343 8.48501V8.30288L13.295 8.09041L13.3253 7.87793L13.386 7.66545V7.48333L13.4771 7.30121V7.14944L13.5075 6.90661L13.5378 6.78519V6.54236L13.5682 6.29953L13.5985 6.08705L13.6289 5.99599V5.84422L13.5985 5.72281L13.6289 5.63175L13.6592 5.51033V5.29785V5.17644V4.96396V4.8729L13.6896 4.66042V4.56936L13.5682 4.44795ZM8.6812 8.12076C8.65085 8.18147 8.59014 8.21182 8.52943 8.18147C8.46872 8.15111 8.43837 8.09041 8.46872 8.0297C8.49908 7.96899 8.55979 7.93864 8.62049 7.96899C8.6812 7.99935 8.71155 8.06005 8.6812 8.12076ZM9.19722 10.7312C9.16686 10.8223 9.04545 10.883 8.92403 10.8223C8.83297 10.7919 8.77226 10.6705 8.83297 10.5491C8.86332 10.458 8.98474 10.3973 9.10615 10.458C9.19722 10.4884 9.22757 10.6098 9.19722 10.7312ZM9.62217 11.49C9.59182 11.5507 9.50075 11.5811 9.44005 11.5507C9.37934 11.5204 9.31863 11.4293 9.34899 11.3686C9.37934 11.3079 9.4704 11.2472 9.53111 11.2776C9.62217 11.3383 9.65252 11.399 9.62217 11.49ZM9.65252 9.57774C9.62217 9.63845 9.56146 9.66881 9.50075 9.63845C9.44005 9.6081 9.40969 9.54739 9.44005 9.48668C9.4704 9.42598 9.53111 9.39562 9.59182 9.42598C9.65252 9.45633 9.68288 9.51704 9.65252 9.57774ZM12.9004 1.77681C12.9004 1.74646 12.9914 1.35186 13.2646 1.01796C13.1736 1.01796 13.1129 1.01796 13.0218 1.04832C12.7183 1.13938 12.5058 1.38221 12.5361 1.59469C12.5665 1.74645 12.7183 1.83752 12.9004 1.83752V1.77681ZM15.0252 2.65707C15.0252 2.53565 14.9948 2.41424 14.9644 2.32318C15.0555 2.20176 15.1466 2.08035 15.2073 1.89822C15.4198 1.29115 15.8144 0.501948 15.4198 0.076994C14.9341 -0.19619 14.2967 0.319825 13.7503 0.653717C13.7199 0.653717 13.7199 0.684071 13.6896 0.684071C13.5682 0.744778 13.4771 0.83584 13.386 0.957255C13.386 0.957255 13.386 0.957255 13.3557 0.987609L13.3253 1.01796C13.0522 1.35186 12.9611 1.77681 12.9307 1.80716V1.83752L12.9914 2.17141H12.9611V2.20176C12.9611 2.20176 12.9611 2.20176 12.9611 2.23212C12.9307 2.23212 12.9307 2.26247 12.9004 2.26247C12.87 2.32318 12.87 2.38389 12.9307 2.41424C12.9611 2.44459 13.0218 2.44459 13.0522 2.38389L13.3253 2.59636L13.5985 2.80884C13.5682 2.86955 13.5682 2.93025 13.6289 2.96061C13.6896 2.99096 13.7503 2.99096 13.7806 2.93025C13.7806 2.93025 13.7806 2.8999 13.7806 2.86955H13.811C13.8414 2.86955 13.8717 2.83919 13.8717 2.80884L14.1449 2.8999C14.2056 2.8999 14.2663 2.93025 14.2967 2.99096C14.3574 3.14273 14.4788 3.26415 14.6002 3.26415C14.8127 3.23379 14.9948 2.99096 15.0252 2.65707ZM14.0842 1.74645C13.9021 1.59469 13.8717 1.3215 14.0235 1.13938C14.1752 0.957255 14.4484 0.926901 14.6306 1.07867C14.8127 1.23044 14.843 1.50362 14.6913 1.68575C14.5395 1.86787 14.2663 1.89822 14.0842 1.74645Z" fill="#392C60"/>
<path id="Vector_24" d="M0.516015 13.7057H0.3946L0.242831 13.5843L0.273185 13.3414L0.303538 13.0076L0.424954 12.6737L0.455308 12.5522L0.485661 12.3094V12.188L0.516015 11.9755V11.8541L0.607077 11.6416L0.63743 11.5202L0.607077 11.3988L0.698138 11.0649V10.9435L0.758846 10.7614L0.819553 10.5185L0.7892 10.3971L0.819553 10.2757L0.849907 10.0632L0.880261 9.97217V9.72934L0.971323 9.57757L0.940969 9.4258L0.971323 9.30438L1.00168 9.18297L1.09274 8.97049L1.15345 8.72766L1.1838 8.60624L1.12309 8.51518L1.21415 8.33306L1.24451 8.21165V7.99917L1.30521 7.8474V7.69563L1.33557 7.57421L1.39628 7.48315V7.36174L1.42663 7.27068L1.48734 7.02785L1.45698 6.90643L1.54805 6.72431V6.57254L1.5784 6.48148V6.36006L1.60875 6.23865L1.63911 6.11723L1.69981 5.8744V5.78334V5.69228L1.73017 5.57086V5.4798L1.79088 5.26732L1.82123 5.17626L1.85158 4.93343L1.88194 4.6906H1.00168L0.7892 4.66025L0.667784 4.6906H0.516015L0.364246 4.66025H0.212477L0.0607077 4.59954L0 4.44777L0.0607077 4.26565L0.121415 4.14423V4.02282L0.0910615 3.9014L0.151769 3.65857L0.182123 3.56751L0.212477 3.35503L0.273185 3.14255L0.303538 3.05149V2.80866L0.333892 2.7176L0.424954 2.53548L0.546369 2.44442L0.667784 2.41406H1.09274L1.15345 2.44442H1.27486L1.39628 2.41406H2.58008L2.70149 2.44442H3.06574L4.09777 2.41406L4.31025 2.44442L4.64414 2.41406L4.79591 2.44442H5.79758H6.01006L6.16183 2.47477L6.19218 2.59619V2.68725L6.16183 2.80866L6.13147 2.93008V3.05149L6.10112 3.14255L6.07077 3.26397V3.35503L6.04041 3.53715V3.65857L6.01006 3.74963V3.96211L5.94935 4.17458L5.919 4.26565L5.88864 4.47812L5.82794 4.62989L5.67617 4.66025L5.5244 4.62989H5.34228L5.19051 4.66025H5.03874L4.37095 4.62989L4.21918 4.66025L4.18883 4.78166L4.21918 4.87272L4.12812 4.99414V5.0852L4.09777 5.17626L4.06741 5.38874L4.03706 5.51015L3.97635 5.81369L3.91564 5.93511L3.946 6.02617L3.85494 6.23865L3.82458 6.42077V6.51183L3.79423 6.69395L3.76388 6.78501V6.90643L3.67281 7.08855L3.64246 7.33138L3.61211 7.4528L3.5514 7.66528L3.49069 7.75634V7.90811L3.52104 8.12058L3.46034 8.30271L3.39963 8.42412L3.36928 8.6366L3.33892 8.72766V8.81872L3.27821 9.0312L3.21751 9.27403L3.18715 9.4258V9.57757L3.21751 9.69898L3.18715 9.79004L3.1568 9.91146L3.09609 10.0936L3.06574 10.215V10.3364L3.09609 10.4578L3.03538 10.6703L2.97468 10.9131L2.91397 11.1256V11.247L2.85326 11.4595L2.7622 11.7934L2.73185 11.9148L2.67114 12.1273L2.70149 12.2487L2.61043 12.613L2.54972 13.0683L2.51937 13.2807L2.45866 13.4932L2.42831 13.5843L2.24618 13.6753H0.849907L0.667784 13.736L0.516015 13.7057Z" fill="#392C60"/>
<path id="Vector_25" d="M14.7216 13.7056L14.6306 13.6753L14.327 13.7056L14.236 13.6145V13.311L14.2967 13.2199L14.2663 13.0985L14.327 12.8861V12.795L14.3877 12.5825L14.4484 12.3397L14.5091 12.1272L14.5395 12.0058L14.6002 11.8237L14.6306 11.7023L14.6609 11.6112L14.7216 11.2469L14.7823 11.1559L14.8127 10.9434L14.843 10.822L14.8734 10.7309L14.9341 10.5185L14.9645 10.4274L14.9948 10.2453V10.1542L15.0859 10.0024V9.82032L15.1162 9.72926V9.60784L15.1769 9.51678L15.2073 9.27395L15.268 8.94006L15.3287 8.81864L15.3591 8.69723L15.3894 8.48475L15.4198 8.36333L15.4501 8.27227L15.4805 8.15086L15.5108 8.0598L15.5715 7.84732L15.6019 7.7259L15.6322 7.48307L15.6929 7.24024L15.7537 7.02777V6.84564L15.784 6.63316L15.8144 6.51175L15.8751 6.39033L15.9054 6.17786L15.9358 6.0868L15.9965 5.84397L16.0268 5.66184L15.9965 5.60113L16.0572 5.38866L16.0875 5.2976L16.1179 4.99406L16.1483 4.87264L16.209 4.66017L16.2697 4.5084L16.3 4.32627L16.3304 4.20486V4.08344L16.3607 3.96203L16.3911 3.84061V3.74955L16.4214 3.62814L16.4821 3.3853L16.5125 3.26389L16.5429 3.14247L16.6036 2.93L16.6339 2.80858L16.6946 2.59611L16.3 2.44434H17.1499H17.3624H17.5749H17.6659H18.7283H18.8497H19.0926H19.3051L19.5479 2.47469H19.6693L19.8818 2.50504L20.2157 2.56575L20.4585 2.62646L20.5799 2.65681L20.7013 2.74787H20.8227L21.0352 2.86929L21.187 2.99071L21.2477 3.08177L21.3388 3.20318L21.4298 3.3246L21.4905 3.44601L21.5816 3.65849L21.6119 3.7799L21.6727 3.96203L21.703 4.14415L21.7334 4.26557L21.7941 4.44769L21.7334 4.5691L21.7637 4.81194V4.93335L21.7941 5.11547L21.7637 5.2976L21.7334 5.44937L21.703 5.57078L21.6727 5.93503L21.6423 6.1475L21.5816 6.26892V6.39033L21.5209 6.51175L21.4905 6.60281V6.69387L21.4298 6.90635L21.3691 7.02777L21.2781 7.24024L21.1566 7.54378L21.0656 7.7259L20.9442 7.90803L20.7924 8.15086L20.7013 8.24192L20.5799 8.42404L20.4281 8.54546L20.3067 8.69723L20.2157 8.81864L20.0032 8.97041V9.12218L19.7907 9.2436L19.6086 9.3043L19.3961 9.39536L19.1533 9.48643L18.9712 9.51678L18.7587 9.54713L18.5462 9.57749H18.0909L17.7874 9.54713H17.4231H17.1803V9.57749L17.1499 9.6989L17.0892 9.82032V10.0328L17.0589 10.1239V10.3363L17.0285 10.4274L16.9982 10.5488V10.6399L16.9678 10.7613V10.8523L16.9071 11.0648L16.8767 11.2166L16.8464 11.3987L16.816 11.5201L16.7553 11.7023L16.725 11.8237L16.6643 11.9451V12.0969L16.6036 12.3397V12.5522L16.5732 12.6432V12.7646V12.8861L16.5429 12.9771L16.5125 13.0985L16.4518 13.2199V13.3717L16.4214 13.4931L16.3607 13.6753L16.2697 13.7056H14.9948H14.7216ZM17.9391 7.51343L18.1213 7.48307L18.4248 7.45272L18.5462 7.39201L18.789 7.20989L18.9712 7.05812L19.0926 6.876L19.1533 6.78493L19.2443 6.57246L19.2747 6.42069L19.3354 6.26892L19.3961 5.99573L19.4568 5.54043L19.4872 5.11547V4.84229L19.4265 4.66017L19.3051 4.5084L19.1229 4.38698L19.0015 4.35663L18.5766 4.32627L18.2123 4.35663L18.0909 4.38698L17.9998 4.5691L17.9695 4.66017L17.9391 4.81194L17.9088 5.08512L17.8784 5.20654L17.8177 5.38866L17.7874 5.72255L17.757 5.87432L17.6963 6.11715L17.6659 6.29927V6.42069L17.6356 6.57246L17.5749 6.99741V7.14918L17.5142 7.36166L17.4838 7.51343H17.9391Z" fill="#392C60"/>
</g>
</g>
</svg>
