<svg width="71" height="72" viewBox="0 0 71 72" fill="none" xmlns="http://www.w3.org/2000/svg">
<g id="script_4_" filter="url(#filter0_ddi_30_491)">
<path d="M54 11H32C25.95 11 21 15.95 21 22V49.5H10V55C10 61.05 14.95 66 21 66H43C49.05 66 54 61.05 54 55V27.5H65V22C65 15.95 60.05 11 54 11ZM37.5 60.5C14.675 60.5 30.9 60.5 21 60.5C17.975 60.5 15.5 58.025 15.5 55C36.95 55 17.15 55 37.5 55V60.5ZM48.5 55C48.5 58.025 46.025 60.5 43 60.5V49.5H26.5V22C26.5 18.975 28.975 16.5 32 16.5C41.9 16.5 25.675 16.5 48.5 16.5C48.5 27.775 48.5 -5.225 48.5 55ZM54 22V16.5C57.025 16.5 59.5 18.975 59.5 22H54ZM29.25 22H45.75V27.5H29.25V22ZM29.25 33H45.75V38.5H29.25V33Z" fill="#EFEFEF"/>
</g>
<defs>
<filter id="filter0_ddi_30_491" x="0" y="0" width="71" height="72" filterUnits="userSpaceOnUse" color-interpolation-filters="sRGB">
<feFlood flood-opacity="0" result="BackgroundImageFix"/>
<feColorMatrix in="SourceAlpha" type="matrix" values="0 0 0 0 0 0 0 0 0 0 0 0 0 0 0 0 0 0 127 0" result="hardAlpha"/>
<feOffset dx="1" dy="1"/>
<feGaussianBlur stdDeviation="2.5"/>
<feColorMatrix type="matrix" values="0 0 0 0 0.694499 0 0 0 0 0.711232 0 0 0 0 0.778168 0 0 0 1 0"/>
<feBlend mode="normal" in2="BackgroundImageFix" result="effect1_dropShadow_30_491"/>
<feColorMatrix in="SourceAlpha" type="matrix" values="0 0 0 0 0 0 0 0 0 0 0 0 0 0 0 0 0 0 127 0" result="hardAlpha"/>
<feOffset dx="-2" dy="-3"/>
<feGaussianBlur stdDeviation="4"/>
<feColorMatrix type="matrix" values="0 0 0 0 0.9801 0 0 0 0 0.981966 0 0 0 0 0.99 0 0 0 1 0"/>
<feBlend mode="normal" in2="effect1_dropShadow_30_491" result="effect2_dropShadow_30_491"/>
<feBlend mode="normal" in="SourceGraphic" in2="effect2_dropShadow_30_491" result="shape"/>
<feColorMatrix in="SourceAlpha" type="matrix" values="0 0 0 0 0 0 0 0 0 0 0 0 0 0 0 0 0 0 127 0" result="hardAlpha"/>
<feOffset dx="1" dy="1"/>
<feGaussianBlur stdDeviation="1.5"/>
<feComposite in2="hardAlpha" operator="arithmetic" k2="-1" k3="1"/>
<feColorMatrix type="matrix" values="0 0 0 0 0.921569 0 0 0 0 0.92549 0 0 0 0 0.941176 0 0 0 1 0"/>
<feBlend mode="normal" in2="shape" result="effect3_innerShadow_30_491"/>
</filter>
</defs>
</svg>
