<svg width="59" height="78" viewBox="0 0 59 78" fill="none" xmlns="http://www.w3.org/2000/svg">
<g id="pin_x5F_sharp_x5F_plus" filter="url(#filter0_ddi_30_497)">
<path d="M31.5 11C19.5214 11 10 20.455 10 32.35C10 44.245 31.5 72 31.5 72C31.5 72 53 44.245 53 32.35C53 20.455 43.4786 11 31.5 11ZM31.5 62.85C31.5 62.85 16.1429 41.5 16.1429 32.35C16.1429 23.81 22.9 17.1 31.5 17.1C40.1 17.1 46.8571 23.81 46.8571 32.35C46.8571 41.5 31.5 62.85 31.5 62.85ZM40.7143 32.35C40.7143 34.18 39.4857 35.4 37.6429 35.4H34.5714V38.45C34.5714 40.28 33.3429 41.5 31.5 41.5C29.6571 41.5 28.4286 40.28 28.4286 38.45V35.4H25.3571C23.5143 35.4 22.2857 34.18 22.2857 32.35C22.2857 30.52 23.5143 29.3 25.3571 29.3H28.4286V26.25C28.4286 24.42 29.6571 23.2 31.5 23.2C33.3429 23.2 34.5714 24.42 34.5714 26.25V29.3H37.6429C39.4857 29.3 40.7143 30.52 40.7143 32.35Z" fill="#EFEFEF"/>
</g>
<defs>
<filter id="filter0_ddi_30_497" x="0" y="0" width="59" height="78" filterUnits="userSpaceOnUse" color-interpolation-filters="sRGB">
<feFlood flood-opacity="0" result="BackgroundImageFix"/>
<feColorMatrix in="SourceAlpha" type="matrix" values="0 0 0 0 0 0 0 0 0 0 0 0 0 0 0 0 0 0 127 0" result="hardAlpha"/>
<feOffset dx="1" dy="1"/>
<feGaussianBlur stdDeviation="2.5"/>
<feColorMatrix type="matrix" values="0 0 0 0 0.694499 0 0 0 0 0.711232 0 0 0 0 0.778168 0 0 0 1 0"/>
<feBlend mode="normal" in2="BackgroundImageFix" result="effect1_dropShadow_30_497"/>
<feColorMatrix in="SourceAlpha" type="matrix" values="0 0 0 0 0 0 0 0 0 0 0 0 0 0 0 0 0 0 127 0" result="hardAlpha"/>
<feOffset dx="-2" dy="-3"/>
<feGaussianBlur stdDeviation="4"/>
<feColorMatrix type="matrix" values="0 0 0 0 0.9801 0 0 0 0 0.981966 0 0 0 0 0.99 0 0 0 1 0"/>
<feBlend mode="normal" in2="effect1_dropShadow_30_497" result="effect2_dropShadow_30_497"/>
<feBlend mode="normal" in="SourceGraphic" in2="effect2_dropShadow_30_497" result="shape"/>
<feColorMatrix in="SourceAlpha" type="matrix" values="0 0 0 0 0 0 0 0 0 0 0 0 0 0 0 0 0 0 127 0" result="hardAlpha"/>
<feOffset dx="1" dy="1"/>
<feGaussianBlur stdDeviation="1.5"/>
<feComposite in2="hardAlpha" operator="arithmetic" k2="-1" k3="1"/>
<feColorMatrix type="matrix" values="0 0 0 0 0.921569 0 0 0 0 0.92549 0 0 0 0 0.941176 0 0 0 1 0"/>
<feBlend mode="normal" in2="shape" result="effect3_innerShadow_30_497"/>
</filter>
</defs>
</svg>
