<svg width="155" height="180" viewBox="0 0 155 180" fill="none" xmlns="http://www.w3.org/2000/svg">
<g filter="url(#filter0_diii_380_498)">
<path fill-rule="evenodd" clip-rule="evenodd" d="M64.4264 173.091C31.0538 173.091 4 146.037 4 112.665C4 79.2921 31.0538 52.2383 64.4264 52.2383C97.799 52.2383 124.853 79.2921 124.853 112.665C124.853 146.037 97.799 173.091 64.4264 173.091ZM76.555 158.797C85.951 156.385 94.4008 151.236 100.812 144.016V106.222C94.1137 106.222 88.6836 100.842 88.6836 94.2053V70.592C83.0866 67.4023 76.8999 65.359 70.4907 64.5835V70.1714C70.4907 76.8082 65.0605 82.1883 58.3621 82.1883V88.1968C58.3621 94.8336 52.9319 100.214 46.2335 100.214V112.231H64.4264C71.1248 112.231 76.555 117.611 76.555 124.248V158.797ZM52.0812 158.797V142.303C45.3878 142.303 39.9617 136.933 39.9617 130.308V124.31H36.9318C31.9118 124.31 27.8422 120.282 27.8422 115.314V100.319H17.2377C10.5661 125.988 26.1575 152.154 52.0812 158.797Z" fill="url(#paint0_linear_380_498)"/>
<path fill-rule="evenodd" clip-rule="evenodd" d="M64.4264 173.091C31.0538 173.091 4 146.037 4 112.665C4 79.2921 31.0538 52.2383 64.4264 52.2383C97.799 52.2383 124.853 79.2921 124.853 112.665C124.853 146.037 97.799 173.091 64.4264 173.091ZM76.555 158.797C85.951 156.385 94.4008 151.236 100.812 144.016V106.222C94.1137 106.222 88.6836 100.842 88.6836 94.2053V70.592C83.0866 67.4023 76.8999 65.359 70.4907 64.5835V70.1714C70.4907 76.8082 65.0605 82.1883 58.3621 82.1883V88.1968C58.3621 94.8336 52.9319 100.214 46.2335 100.214V112.231H64.4264C71.1248 112.231 76.555 117.611 76.555 124.248V158.797ZM52.0812 158.797V142.303C45.3878 142.303 39.9617 136.933 39.9617 130.308V124.31H36.9318C31.9118 124.31 27.8422 120.282 27.8422 115.314V100.319H17.2377C10.5661 125.988 26.1575 152.154 52.0812 158.797Z" fill="white" fill-opacity="0.8"/>
</g>
<g filter="url(#filter1_ddii_380_498)">
<path fill-rule="evenodd" clip-rule="evenodd" d="M109.584 87.9746C109.584 87.9746 87.168 58.3137 87.168 45.7411C87.168 37.6165 91.4405 30.109 98.3761 26.0467C105.312 21.9844 113.857 21.9844 120.792 26.0467C127.728 30.109 132 37.6165 132 45.7411C132 58.3137 109.584 87.9746 109.584 87.9746ZM109.909 52.2386C113.498 52.2386 116.407 49.3296 116.407 45.7411C116.407 42.1527 113.498 39.2437 109.909 39.2437C106.321 39.2437 103.412 42.1527 103.412 45.7411C103.412 49.3296 106.321 52.2386 109.909 52.2386Z" fill="url(#paint1_linear_380_498)"/>
<path fill-rule="evenodd" clip-rule="evenodd" d="M109.584 87.9746C109.584 87.9746 87.168 58.3137 87.168 45.7411C87.168 37.6165 91.4405 30.109 98.3761 26.0467C105.312 21.9844 113.857 21.9844 120.792 26.0467C127.728 30.109 132 37.6165 132 45.7411C132 58.3137 109.584 87.9746 109.584 87.9746ZM109.909 52.2386C113.498 52.2386 116.407 49.3296 116.407 45.7411C116.407 42.1527 113.498 39.2437 109.909 39.2437C106.321 39.2437 103.412 42.1527 103.412 45.7411C103.412 49.3296 106.321 52.2386 109.909 52.2386Z" fill="white" fill-opacity="0.8"/>
</g>
<g filter="url(#filter2_diii_380_498)">
<path fill-rule="evenodd" clip-rule="evenodd" d="M64.4264 173.091C31.0538 173.091 4 146.037 4 112.665C4 79.2921 31.0538 52.2383 64.4264 52.2383C97.799 52.2383 124.853 79.2921 124.853 112.665C124.853 146.037 97.799 173.091 64.4264 173.091ZM76.555 158.797C85.951 156.385 94.4008 151.236 100.812 144.016V106.222C94.1137 106.222 88.6836 100.842 88.6836 94.2053V70.592C83.0866 67.4023 76.8999 65.359 70.4907 64.5835V70.1714C70.4907 76.8082 65.0605 82.1883 58.3621 82.1883V88.1968C58.3621 94.8336 52.9319 100.214 46.2335 100.214V112.231H64.4264C71.1248 112.231 76.555 117.611 76.555 124.248V158.797ZM52.0812 158.797V142.303C45.3878 142.303 39.9617 136.933 39.9617 130.308V124.31H36.9318C31.9118 124.31 27.8422 120.282 27.8422 115.314V100.319H17.2377C10.5661 125.988 26.1575 152.154 52.0812 158.797Z" fill="url(#paint2_linear_380_498)"/>
<path fill-rule="evenodd" clip-rule="evenodd" d="M64.4264 173.091C31.0538 173.091 4 146.037 4 112.665C4 79.2921 31.0538 52.2383 64.4264 52.2383C97.799 52.2383 124.853 79.2921 124.853 112.665C124.853 146.037 97.799 173.091 64.4264 173.091ZM76.555 158.797C85.951 156.385 94.4008 151.236 100.812 144.016V106.222C94.1137 106.222 88.6836 100.842 88.6836 94.2053V70.592C83.0866 67.4023 76.8999 65.359 70.4907 64.5835V70.1714C70.4907 76.8082 65.0605 82.1883 58.3621 82.1883V88.1968C58.3621 94.8336 52.9319 100.214 46.2335 100.214V112.231H64.4264C71.1248 112.231 76.555 117.611 76.555 124.248V158.797ZM52.0812 158.797V142.303C45.3878 142.303 39.9617 136.933 39.9617 130.308V124.31H36.9318C31.9118 124.31 27.8422 120.282 27.8422 115.314V100.319H17.2377C10.5661 125.988 26.1575 152.154 52.0812 158.797Z" fill="white" fill-opacity="0.8"/>
</g>
<g filter="url(#filter3_ddii_380_498)">
<path fill-rule="evenodd" clip-rule="evenodd" d="M109.584 87.9746C109.584 87.9746 87.168 58.3137 87.168 45.7411C87.168 37.6165 91.4405 30.109 98.3761 26.0467C105.312 21.9844 113.857 21.9844 120.792 26.0467C127.728 30.109 132 37.6165 132 45.7411C132 58.3137 109.584 87.9746 109.584 87.9746ZM109.909 52.2386C113.498 52.2386 116.407 49.3296 116.407 45.7411C116.407 42.1527 113.498 39.2437 109.909 39.2437C106.321 39.2437 103.412 42.1527 103.412 45.7411C103.412 49.3296 106.321 52.2386 109.909 52.2386Z" fill="url(#paint3_linear_380_498)"/>
<path fill-rule="evenodd" clip-rule="evenodd" d="M109.584 87.9746C109.584 87.9746 87.168 58.3137 87.168 45.7411C87.168 37.6165 91.4405 30.109 98.3761 26.0467C105.312 21.9844 113.857 21.9844 120.792 26.0467C127.728 30.109 132 37.6165 132 45.7411C132 58.3137 109.584 87.9746 109.584 87.9746ZM109.909 52.2386C113.498 52.2386 116.407 49.3296 116.407 45.7411C116.407 42.1527 113.498 39.2437 109.909 39.2437C106.321 39.2437 103.412 42.1527 103.412 45.7411C103.412 49.3296 106.321 52.2386 109.909 52.2386Z" fill="white" fill-opacity="0.8"/>
</g>
<defs>
<filter id="filter0_diii_380_498" x="-6" y="42.2383" width="136.853" height="136.853" filterUnits="userSpaceOnUse" color-interpolation-filters="sRGB">
<feFlood flood-opacity="0" result="BackgroundImageFix"/>
<feColorMatrix in="SourceAlpha" type="matrix" values="0 0 0 0 0 0 0 0 0 0 0 0 0 0 0 0 0 0 127 0" result="hardAlpha"/>
<feOffset dx="1" dy="1"/>
<feGaussianBlur stdDeviation="2.5"/>
<feColorMatrix type="matrix" values="0 0 0 0 0.921569 0 0 0 0 0.92549 0 0 0 0 0.941176 0 0 0 1 0"/>
<feBlend mode="normal" in2="BackgroundImageFix" result="effect1_dropShadow_380_498"/>
<feBlend mode="normal" in="SourceGraphic" in2="effect1_dropShadow_380_498" result="shape"/>
<feColorMatrix in="SourceAlpha" type="matrix" values="0 0 0 0 0 0 0 0 0 0 0 0 0 0 0 0 0 0 127 0" result="hardAlpha"/>
<feOffset dx="3" dy="5"/>
<feGaussianBlur stdDeviation="11"/>
<feComposite in2="hardAlpha" operator="arithmetic" k2="-1" k3="1"/>
<feColorMatrix type="matrix" values="0 0 0 0 0.741112 0 0 0 0 0.756463 0 0 0 0 0.817868 0 0 0 1 0"/>
<feBlend mode="normal" in2="shape" result="effect2_innerShadow_380_498"/>
<feColorMatrix in="SourceAlpha" type="matrix" values="0 0 0 0 0 0 0 0 0 0 0 0 0 0 0 0 0 0 127 0" result="hardAlpha"/>
<feOffset dx="-10" dy="-10"/>
<feGaussianBlur stdDeviation="15.5"/>
<feComposite in2="hardAlpha" operator="arithmetic" k2="-1" k3="1"/>
<feColorMatrix type="matrix" values="0 0 0 0 1 0 0 0 0 1 0 0 0 0 1 0 0 0 1 0"/>
<feBlend mode="normal" in2="effect2_innerShadow_380_498" result="effect3_innerShadow_380_498"/>
<feColorMatrix in="SourceAlpha" type="matrix" values="0 0 0 0 0 0 0 0 0 0 0 0 0 0 0 0 0 0 127 0" result="hardAlpha"/>
<feOffset dx="-2" dy="-2"/>
<feGaussianBlur stdDeviation="1.5"/>
<feComposite in2="hardAlpha" operator="arithmetic" k2="-1" k3="1"/>
<feColorMatrix type="matrix" values="0 0 0 0 0.99 0 0 0 0 0.994833 0 0 0 0 1 0 0 0 1 0"/>
<feBlend mode="normal" in2="effect3_innerShadow_380_498" result="effect4_innerShadow_380_498"/>
</filter>
<filter id="filter1_ddii_380_498" x="64.168" y="0" width="90.8325" height="109.975" filterUnits="userSpaceOnUse" color-interpolation-filters="sRGB">
<feFlood flood-opacity="0" result="BackgroundImageFix"/>
<feColorMatrix in="SourceAlpha" type="matrix" values="0 0 0 0 0 0 0 0 0 0 0 0 0 0 0 0 0 0 127 0" result="hardAlpha"/>
<feOffset dx="4" dy="3"/>
<feGaussianBlur stdDeviation="9.5"/>
<feColorMatrix type="matrix" values="0 0 0 0 0.741112 0 0 0 0 0.756463 0 0 0 0 0.817868 0 0 0 1 0"/>
<feBlend mode="normal" in2="BackgroundImageFix" result="effect1_dropShadow_380_498"/>
<feColorMatrix in="SourceAlpha" type="matrix" values="0 0 0 0 0 0 0 0 0 0 0 0 0 0 0 0 0 0 127 0" result="hardAlpha"/>
<feOffset dx="-7" dy="-7"/>
<feGaussianBlur stdDeviation="8"/>
<feColorMatrix type="matrix" values="0 0 0 0 0.9801 0 0 0 0 0.983895 0 0 0 0 0.99 0 0 0 1 0"/>
<feBlend mode="normal" in2="effect1_dropShadow_380_498" result="effect2_dropShadow_380_498"/>
<feBlend mode="normal" in="SourceGraphic" in2="effect2_dropShadow_380_498" result="shape"/>
<feColorMatrix in="SourceAlpha" type="matrix" values="0 0 0 0 0 0 0 0 0 0 0 0 0 0 0 0 0 0 127 0" result="hardAlpha"/>
<feOffset dx="1" dy="1"/>
<feGaussianBlur stdDeviation="8"/>
<feComposite in2="hardAlpha" operator="arithmetic" k2="-1" k3="1"/>
<feColorMatrix type="matrix" values="0 0 0 0 0.912 0 0 0 0 0.9196 0 0 0 0 0.95 0 0 0 1 0"/>
<feBlend mode="normal" in2="shape" result="effect3_innerShadow_380_498"/>
<feColorMatrix in="SourceAlpha" type="matrix" values="0 0 0 0 0 0 0 0 0 0 0 0 0 0 0 0 0 0 127 0" result="hardAlpha"/>
<feOffset dx="-1" dy="-1"/>
<feGaussianBlur stdDeviation="8"/>
<feComposite in2="hardAlpha" operator="arithmetic" k2="-1" k3="1"/>
<feColorMatrix type="matrix" values="0 0 0 0 0.9604 0 0 0 0 0.96432 0 0 0 0 0.98 0 0 0 1 0"/>
<feBlend mode="normal" in2="effect3_innerShadow_380_498" result="effect4_innerShadow_380_498"/>
</filter>
<filter id="filter2_diii_380_498" x="-6" y="42.2383" width="136.853" height="136.853" filterUnits="userSpaceOnUse" color-interpolation-filters="sRGB">
<feFlood flood-opacity="0" result="BackgroundImageFix"/>
<feColorMatrix in="SourceAlpha" type="matrix" values="0 0 0 0 0 0 0 0 0 0 0 0 0 0 0 0 0 0 127 0" result="hardAlpha"/>
<feOffset dx="1" dy="1"/>
<feGaussianBlur stdDeviation="2.5"/>
<feColorMatrix type="matrix" values="0 0 0 0 0.921569 0 0 0 0 0.92549 0 0 0 0 0.941176 0 0 0 1 0"/>
<feBlend mode="normal" in2="BackgroundImageFix" result="effect1_dropShadow_380_498"/>
<feBlend mode="normal" in="SourceGraphic" in2="effect1_dropShadow_380_498" result="shape"/>
<feColorMatrix in="SourceAlpha" type="matrix" values="0 0 0 0 0 0 0 0 0 0 0 0 0 0 0 0 0 0 127 0" result="hardAlpha"/>
<feOffset dx="3" dy="5"/>
<feGaussianBlur stdDeviation="11"/>
<feComposite in2="hardAlpha" operator="arithmetic" k2="-1" k3="1"/>
<feColorMatrix type="matrix" values="0 0 0 0 0.741112 0 0 0 0 0.756463 0 0 0 0 0.817868 0 0 0 1 0"/>
<feBlend mode="normal" in2="shape" result="effect2_innerShadow_380_498"/>
<feColorMatrix in="SourceAlpha" type="matrix" values="0 0 0 0 0 0 0 0 0 0 0 0 0 0 0 0 0 0 127 0" result="hardAlpha"/>
<feOffset dx="-10" dy="-10"/>
<feGaussianBlur stdDeviation="15.5"/>
<feComposite in2="hardAlpha" operator="arithmetic" k2="-1" k3="1"/>
<feColorMatrix type="matrix" values="0 0 0 0 1 0 0 0 0 1 0 0 0 0 1 0 0 0 1 0"/>
<feBlend mode="normal" in2="effect2_innerShadow_380_498" result="effect3_innerShadow_380_498"/>
<feColorMatrix in="SourceAlpha" type="matrix" values="0 0 0 0 0 0 0 0 0 0 0 0 0 0 0 0 0 0 127 0" result="hardAlpha"/>
<feOffset dx="-2" dy="-2"/>
<feGaussianBlur stdDeviation="1.5"/>
<feComposite in2="hardAlpha" operator="arithmetic" k2="-1" k3="1"/>
<feColorMatrix type="matrix" values="0 0 0 0 0.99 0 0 0 0 0.994833 0 0 0 0 1 0 0 0 1 0"/>
<feBlend mode="normal" in2="effect3_innerShadow_380_498" result="effect4_innerShadow_380_498"/>
</filter>
<filter id="filter3_ddii_380_498" x="64.168" y="0" width="90.8325" height="109.975" filterUnits="userSpaceOnUse" color-interpolation-filters="sRGB">
<feFlood flood-opacity="0" result="BackgroundImageFix"/>
<feColorMatrix in="SourceAlpha" type="matrix" values="0 0 0 0 0 0 0 0 0 0 0 0 0 0 0 0 0 0 127 0" result="hardAlpha"/>
<feOffset dx="4" dy="3"/>
<feGaussianBlur stdDeviation="9.5"/>
<feColorMatrix type="matrix" values="0 0 0 0 0.741112 0 0 0 0 0.756463 0 0 0 0 0.817868 0 0 0 1 0"/>
<feBlend mode="normal" in2="BackgroundImageFix" result="effect1_dropShadow_380_498"/>
<feColorMatrix in="SourceAlpha" type="matrix" values="0 0 0 0 0 0 0 0 0 0 0 0 0 0 0 0 0 0 127 0" result="hardAlpha"/>
<feOffset dx="-7" dy="-7"/>
<feGaussianBlur stdDeviation="8"/>
<feColorMatrix type="matrix" values="0 0 0 0 0.9801 0 0 0 0 0.983895 0 0 0 0 0.99 0 0 0 1 0"/>
<feBlend mode="normal" in2="effect1_dropShadow_380_498" result="effect2_dropShadow_380_498"/>
<feBlend mode="normal" in="SourceGraphic" in2="effect2_dropShadow_380_498" result="shape"/>
<feColorMatrix in="SourceAlpha" type="matrix" values="0 0 0 0 0 0 0 0 0 0 0 0 0 0 0 0 0 0 127 0" result="hardAlpha"/>
<feOffset dx="1" dy="1"/>
<feGaussianBlur stdDeviation="8"/>
<feComposite in2="hardAlpha" operator="arithmetic" k2="-1" k3="1"/>
<feColorMatrix type="matrix" values="0 0 0 0 0.912 0 0 0 0 0.9196 0 0 0 0 0.95 0 0 0 1 0"/>
<feBlend mode="normal" in2="shape" result="effect3_innerShadow_380_498"/>
<feColorMatrix in="SourceAlpha" type="matrix" values="0 0 0 0 0 0 0 0 0 0 0 0 0 0 0 0 0 0 127 0" result="hardAlpha"/>
<feOffset dx="-1" dy="-1"/>
<feGaussianBlur stdDeviation="8"/>
<feComposite in2="hardAlpha" operator="arithmetic" k2="-1" k3="1"/>
<feColorMatrix type="matrix" values="0 0 0 0 0.9604 0 0 0 0 0.96432 0 0 0 0 0.98 0 0 0 1 0"/>
<feBlend mode="normal" in2="effect3_innerShadow_380_498" result="effect4_innerShadow_380_498"/>
</filter>
<linearGradient id="paint0_linear_380_498" x1="-230.634" y1="133.084" x2="78.0378" y2="374.24" gradientUnits="userSpaceOnUse">
<stop stop-color="#E6E7ED"/>
<stop offset="1" stop-color="#F7F8FA"/>
</linearGradient>
<linearGradient id="paint1_linear_380_498" x1="0.126142" y1="66.4652" x2="143.006" y2="143.488" gradientUnits="userSpaceOnUse">
<stop stop-color="#E6E7ED"/>
<stop offset="1" stop-color="#F7F8FA"/>
</linearGradient>
<linearGradient id="paint2_linear_380_498" x1="-230.634" y1="133.084" x2="78.0378" y2="374.24" gradientUnits="userSpaceOnUse">
<stop stop-color="#E6E7ED"/>
<stop offset="1" stop-color="#F7F8FA"/>
</linearGradient>
<linearGradient id="paint3_linear_380_498" x1="0.126142" y1="66.4652" x2="143.006" y2="143.488" gradientUnits="userSpaceOnUse">
<stop stop-color="#E6E7ED"/>
<stop offset="1" stop-color="#F7F8FA"/>
</linearGradient>
</defs>
</svg>
