<svg width="76" height="77" viewBox="0 0 76 77" fill="none" xmlns="http://www.w3.org/2000/svg">
<g id="sun_x5F_star_2_" filter="url(#filter0_ddi_30_503)">
<path d="M40 20C28.3 20 19 29.3 19 41C19 52.7 28.3 62 40 62C51.7 62 61 52.7 61 41C61 29.3 51.7 20 40 20ZM40 56C31.6 56 25 49.4 25 41C25 32.6 31.6 26 40 26C48.4 26 55 32.6 55 41C55 49.4 48.4 56 40 56ZM37 14C37 12.2 38.2 11 40 11C41.8 11 43 12.2 43 14C43 15.8 41.8 17 40 17C38.2 17 37 15.8 37 14ZM43 68C43 69.8 41.8 71 40 71C38.2 71 37 69.8 37 68C37 66.2 38.2 65 40 65C41.8 65 43 66.2 43 68ZM70 41C70 42.8 68.8 44 67 44C65.2 44 64 42.8 64 41C64 39.2 65.2 38 67 38C68.8 38 70 39.2 70 41ZM16 41C16 42.8 14.8 44 13 44C11.2 44 10 42.8 10 41C10 39.2 11.2 38 13 38C14.8 38 16 39.2 16 41ZM61.2999 19.6997C62.4999 20.8997 62.4999 22.7001 61.2999 23.9001C60.0999 25.1001 58.3 25.1001 57.1 23.9001C55.9 22.7001 55.9 20.8997 57.1 19.6997C58 18.4997 60.0999 18.4997 61.2999 19.6997ZM22.9 58.0999C24.1 59.2999 24.1 61.1003 22.9 62.3003C21.7 63.5003 19.9001 63.5003 18.7001 62.3003C17.5001 61.1003 17.5001 59.2999 18.7001 58.0999C19.9001 56.8999 22 56.8999 22.9 58.0999ZM61.2999 58.0999C62.4999 59.2999 62.4999 61.1003 61.2999 62.3003C60.0999 63.5003 58.3 63.5003 57.1 62.3003C55.9 61.1003 55.9 59.2999 57.1 58.0999C58 56.8999 60.0999 56.8999 61.2999 58.0999ZM18.7001 23.9001C17.5001 22.7001 17.5001 20.8997 18.7001 19.6997C19.9001 18.4997 21.7 18.4997 22.9 19.6997C24.1 20.8997 24.1 22.7001 22.9 23.9001C22 25.1001 19.9001 25.1001 18.7001 23.9001Z" fill="#EFEFEF"/>
</g>
<defs>
<filter id="filter0_ddi_30_503" x="0" y="0" width="76" height="77" filterUnits="userSpaceOnUse" color-interpolation-filters="sRGB">
<feFlood flood-opacity="0" result="BackgroundImageFix"/>
<feColorMatrix in="SourceAlpha" type="matrix" values="0 0 0 0 0 0 0 0 0 0 0 0 0 0 0 0 0 0 127 0" result="hardAlpha"/>
<feOffset dx="1" dy="1"/>
<feGaussianBlur stdDeviation="2.5"/>
<feColorMatrix type="matrix" values="0 0 0 0 0.694499 0 0 0 0 0.711232 0 0 0 0 0.778168 0 0 0 1 0"/>
<feBlend mode="normal" in2="BackgroundImageFix" result="effect1_dropShadow_30_503"/>
<feColorMatrix in="SourceAlpha" type="matrix" values="0 0 0 0 0 0 0 0 0 0 0 0 0 0 0 0 0 0 127 0" result="hardAlpha"/>
<feOffset dx="-2" dy="-3"/>
<feGaussianBlur stdDeviation="4"/>
<feColorMatrix type="matrix" values="0 0 0 0 0.9801 0 0 0 0 0.981966 0 0 0 0 0.99 0 0 0 1 0"/>
<feBlend mode="normal" in2="effect1_dropShadow_30_503" result="effect2_dropShadow_30_503"/>
<feBlend mode="normal" in="SourceGraphic" in2="effect2_dropShadow_30_503" result="shape"/>
<feColorMatrix in="SourceAlpha" type="matrix" values="0 0 0 0 0 0 0 0 0 0 0 0 0 0 0 0 0 0 127 0" result="hardAlpha"/>
<feOffset dx="1" dy="1"/>
<feGaussianBlur stdDeviation="1.5"/>
<feComposite in2="hardAlpha" operator="arithmetic" k2="-1" k3="1"/>
<feColorMatrix type="matrix" values="0 0 0 0 0.921569 0 0 0 0 0.92549 0 0 0 0 0.941176 0 0 0 1 0"/>
<feBlend mode="normal" in2="shape" result="effect3_innerShadow_30_503"/>
</filter>
</defs>
</svg>
