<svg width="16" height="28" viewBox="0 0 16 28" fill="none" xmlns="http://www.w3.org/2000/svg">
<g opacity="0.5">
<path d="M9.33333 21C9.33333 21.84 8.8 22.4 8 22.4C7.2 22.4 6.66667 21.84 6.66667 21C6.66667 20.16 7.2 19.6 8 19.6C8.8 19.6 9.33333 20.16 9.33333 21ZM16 2.8V25.2C16 26.74 14.8 28 13.3333 28H2.66667C1.2 28 0 26.74 0 25.2V2.8C0 1.26 1.2 0 2.66667 0H13.3333C14.8 0 16 1.26 16 2.8ZM2.66667 4.2V14H13.3333V4.2C13.3333 3.36 12.8 2.8 12 2.8H4C3.2 2.8 2.66667 3.36 2.66667 4.2ZM13.3333 23.8V16.8H2.66667V23.8C2.66667 24.64 3.2 25.2 4 25.2H12C12.8 25.2 13.3333 24.64 13.3333 23.8Z" fill="#105BA2"/>
</g>
</svg>
