<svg width="28" height="28" viewBox="0 0 28 28" fill="none" xmlns="http://www.w3.org/2000/svg">
<g id="07" opacity="0.5">
<path id="email" d="M24.0746 10.5L14.6967 15.1201C14.2768 15.2601 13.8569 15.2601 13.437 15.1201L4.05909 10.5C2.23949 9.52 0 10.9201 0 13.0201V24.6401C0 26.1801 1.25972 28 2.79938 28H25.1944C26.734 28 27.9938 26.1801 27.9938 24.6401V13.0201C28.1337 10.9201 25.8942 9.66 24.0746 10.5ZM25.3344 23.2401C25.3344 24.0801 24.7745 25.2 23.9347 25.2H4.33904C3.49923 25.2 2.93935 23.9401 2.93935 23.2401V14.1401C2.93935 13.5801 3.49924 13.2999 3.91915 13.5799C9.79784 16.5199 7.97824 15.5399 12.8771 18.0599C13.717 18.4799 14.5568 18.4799 15.3966 18.0599C20.2955 15.6799 18.1959 16.6601 24.3546 13.7201C24.7745 13.4401 25.3344 13.8601 25.3344 14.4201C25.3344 19.3201 25.3344 18.3401 25.3344 23.2401ZM3.35924 7.27993L12.8771 12.0401C13.717 12.4601 14.5568 12.4601 15.3966 12.0401L24.9145 7.27993C25.1944 7.13993 25.3344 6.86007 25.3344 6.72007V2.24014C25.3344 0.700137 24.0746 0 22.535 0H5.73873C4.19907 0 2.93935 0.700137 2.93935 2.24014V6.72007C2.93935 7.00007 3.0793 7.13993 3.35924 7.27993ZM5.73873 3.64014C5.73873 2.80014 6.2986 2.8 7.13842 2.8H21.1353C21.9751 2.8 22.535 2.80014 22.535 3.64014V5.32007L14.6967 9.24014C14.2768 9.38014 13.8569 9.38014 13.437 9.24014L5.59875 5.32007V3.64014H5.73873Z" fill="#105BA2"/>
</g>
</svg>
