<svg width="25" height="37" viewBox="0 0 25 37" fill="none" xmlns="http://www.w3.org/2000/svg">
<g opacity="0.5">
<path d="M12.5 0.962402C5.53571 0.962402 0 6.49812 0 13.4624C0 20.4267 12.5 36.6767 12.5 36.6767C12.5 36.6767 25 20.4267 25 13.4624C25 6.49812 19.4643 0.962402 12.5 0.962402ZM12.5 31.3195C12.5 31.3195 3.57143 18.8195 3.57143 13.4624C3.57143 8.4624 7.5 4.53383 12.5 4.53383C17.5 4.53383 21.4286 8.4624 21.4286 13.4624C21.4286 18.8195 12.5 31.3195 12.5 31.3195Z" fill="#105BA2"/>
<path d="M16.0714 15.2483C17.1429 15.2483 17.8571 14.534 17.8571 13.4626C17.8571 12.3912 17.1429 11.6769 16.0714 11.6769H14.2857V9.89118C14.2857 8.81975 13.5714 8.10547 12.5 8.10547C11.4286 8.10547 10.7143 8.81975 10.7143 9.89118V11.6769H8.92857C7.85714 11.6769 7.14285 12.3912 7.14285 13.4626C7.14285 14.534 7.85714 15.2483 8.92857 15.2483H10.7143V17.034C10.7143 18.1055 11.4286 18.8198 12.5 18.8198C13.5714 18.8198 14.2857 18.1055 14.2857 17.034V15.2483H16.0714Z" fill="#105BA2"/>
</g>
</svg>
