<svg width="10" height="14" viewBox="0 0 10 14" fill="none" xmlns="http://www.w3.org/2000/svg">
<path id="pin_x5F_sharp_x5F_circle_1_" d="M5 0C2.21429 0 0 2.17 0 4.9C0 7.63 5 14 5 14C5 14 10 7.63 10 4.9C10 2.17 7.78571 0 5 0ZM5 11.9C5 11.9 1.42857 7 1.42857 4.9C1.42857 2.94 3 1.4 5 1.4C7 1.4 8.57143 2.94 8.57143 4.9C8.57143 7 5 11.9 5 11.9ZM6.42857 5.03997C6.42857 5.80997 5.78571 6.43997 5 6.43997C4.21429 6.43997 3.57143 5.80997 3.57143 5.03997C3.57143 4.26997 4.21429 3.63997 5 3.63997C5.78571 3.63997 6.42857 4.26997 6.42857 5.03997Z" fill="white"/>
</svg>
