<svg width="41" height="42" viewBox="0 0 41 42" fill="none" xmlns="http://www.w3.org/2000/svg">
<g filter="url(#filter0_d_22_4611)">
<path fill-rule="evenodd" clip-rule="evenodd" d="M28.0062 22.8568L25.3404 22.5524C24.7002 22.479 24.0705 22.6994 23.6192 23.1507L21.6881 25.0818C18.7179 23.5705 16.283 21.146 14.7717 18.1654L16.7133 16.2237C17.1646 15.7724 17.385 15.1427 17.3115 14.5025L17.0072 11.8577C16.8812 10.7976 15.9891 10 14.9186 10H13.1029C11.9169 10 10.9304 10.9866 11.0039 12.1725C11.5601 21.1356 18.7284 28.2934 27.6809 28.8496C28.8668 28.9231 29.8534 27.9365 29.8534 26.7506V24.9349C29.8639 23.8748 29.0662 22.9827 28.0062 22.8568Z" fill="#FFA842"/>
<path d="M28.0989 22.0767L28.0953 22.0763L25.43 21.772C24.5523 21.6713 23.6848 21.974 23.0637 22.5952L21.5439 24.115C19.1124 22.7597 17.093 20.747 15.7379 18.3101L17.2688 16.7792C17.8899 16.1581 18.1927 15.2907 18.092 14.4129L18.0919 14.4127L17.7876 11.7679L17.7876 11.7679L17.7872 11.765C17.6146 10.3118 16.3892 9.21444 14.9186 9.21444H13.1029C11.4936 9.21444 10.1165 10.5541 10.2198 12.2211L10.2198 12.2212C10.8006 21.5801 18.2845 29.0529 27.6321 29.6337L27.6323 29.6337C29.2993 29.737 30.6389 28.3599 30.6389 26.7506V24.9383C30.6513 23.4705 29.547 22.2488 28.0989 22.0767Z" stroke="white" stroke-opacity="0.2" stroke-width="1.57112"/>
</g>
<defs>
<filter id="filter0_d_22_4611" x="0.00196934" y="0.573246" width="40.8493" height="40.8494" filterUnits="userSpaceOnUse" color-interpolation-filters="sRGB">
<feFlood flood-opacity="0" result="BackgroundImageFix"/>
<feColorMatrix in="SourceAlpha" type="matrix" values="0 0 0 0 0 0 0 0 0 0 0 0 0 0 0 0 0 0 127 0" result="hardAlpha"/>
<feOffset dy="1.57112"/>
<feGaussianBlur stdDeviation="4.71337"/>
<feColorMatrix type="matrix" values="0 0 0 0 1 0 0 0 0 0.709804 0 0 0 0 0.368627 0 0 0 1 0"/>
<feBlend mode="normal" in2="BackgroundImageFix" result="effect1_dropShadow_22_4611"/>
<feBlend mode="normal" in="SourceGraphic" in2="effect1_dropShadow_22_4611" result="shape"/>
</filter>
</defs>
</svg>
