<svg width="179" height="59" viewBox="0 0 179 59" fill="none" xmlns="http://www.w3.org/2000/svg">
<path d="M52.91 28.24C52.9139 26.3044 52.3435 24.4112 51.2708 22.8C50.1981 21.1889 48.6715 19.9323 46.8842 19.1893C45.0969 18.4463 43.1293 18.2503 41.2306 18.6262C39.3319 19.0021 37.5874 19.933 36.2181 21.301C34.8487 22.6689 33.916 24.4124 33.5382 26.3108C33.1603 28.2091 33.3543 30.1769 34.0954 31.9649C34.8366 33.753 36.0917 35.2809 37.7017 36.3552C39.3118 37.4296 41.2044 38.002 43.14 38C45.7286 37.9974 48.2106 36.9685 50.042 35.1391C51.8733 33.3096 52.9047 30.8286 52.91 28.24Z" fill="url(#paint0_radial_13_819)"/>
<path d="M51 24.46C51.13 27.55 47.7 28.65 43.43 28.83C39.16 29.01 35.65 28.2 35.52 25.11C35.39 22.02 38.75 19.37 43.03 19.19C47.31 19.01 50.91 21.37 51 24.46Z" fill="url(#paint1_linear_13_819)"/>
<path d="M46.01 22.17H39.76L35.41 32.45H39.33L40.07 30.59L40.61 29.19L42.67 23.99L44.73 29.19L45.31 30.59L46.05 32.45H50.35L46.01 22.17Z" fill="#392C60"/>
<path d="M44.56 31.06H39.33V32.46H44.56V31.06Z" fill="#392C60"/>
<path d="M33.62 26.65C33.62 26.65 31.9 36.16 40 33.34C48.1 30.52 51.33 20.46 51.33 20.46C52.269 21.0252 53.1618 21.6639 54 22.37C54.698 23.0132 55.3496 23.7049 55.95 24.44C55.95 24.44 51.18 37.26 40.64 38.23C35.15 38.73 33.33 35.4 32.7 33.52C31.7 30.52 33.62 26.65 33.62 26.65Z" fill="url(#paint2_radial_13_819)"/>
<path d="M40 33.34C48.18 30.48 51.36 20.46 51.36 20.46C50.775 20.6282 50.1807 20.7618 49.58 20.86C48.51 24.22 45.46 30.14 40.3 32.86C37.22 34.47 35.46 33.86 34.47 32.51C35.29 33.73 36.93 34.4 40 33.34Z" fill="url(#paint3_linear_13_819)"/>
<path d="M40 33.34C41.3892 32.8341 42.6914 32.1155 43.86 31.21C45.0242 30.3067 46.0781 29.2696 47 28.12C47.917 26.9653 48.7333 25.7341 49.44 24.44C49.79 23.79 50.11 23.13 50.44 22.44C50.7345 21.8056 50.9916 21.1545 51.21 20.49L51.38 20.44L51.53 20.53C51.28 21.24 50.99 21.87 50.68 22.53C50.37 23.19 50.02 23.86 49.68 24.53C48.9478 25.8208 48.1047 27.0455 47.16 28.19C46.2149 29.337 45.1336 30.3645 43.94 31.25C42.745 32.15 41.4153 32.8554 40 33.34Z" fill="#EFC700"/>
<path d="M61.91 37.76V35.21H62.78V37.31H64.43V37.76H61.91Z" fill="#392C60"/>
<path d="M78 36.48C78.0137 36.6761 77.9745 36.8724 77.8865 37.0483C77.7986 37.2241 77.6651 37.3732 77.5 37.48C77.0512 37.7037 76.5565 37.8201 76.055 37.8201C75.5535 37.8201 75.0589 37.7037 74.61 37.48C74.4449 37.3732 74.3114 37.2241 74.2235 37.0483C74.1356 36.8724 74.0964 36.6761 74.11 36.48C74.0985 36.2841 74.1386 36.0886 74.2263 35.9131C74.3141 35.7376 74.4464 35.5883 74.61 35.48C75.0521 35.2344 75.5551 35.1199 76.06 35.15C76.5618 35.1184 77.062 35.2331 77.5 35.48C77.6629 35.589 77.7947 35.7385 77.8824 35.9138C77.97 36.0891 78.0106 36.2843 78 36.48ZM75 36.48C74.9897 36.5996 75.0079 36.72 75.0531 36.8312C75.0983 36.9425 75.1692 37.0414 75.26 37.12C75.4816 37.284 75.7552 37.3622 76.03 37.34C76.72 37.34 77.03 37.05 77.03 36.48C77.03 35.91 76.69 35.62 76.03 35.62C75.7536 35.5986 75.4783 35.6727 75.25 35.83C75.1698 35.9162 75.1101 36.0195 75.0754 36.132C75.0408 36.2446 75.0321 36.3636 75.05 36.48H75Z" fill="#392C60"/>
<path d="M89.6 36.33H91.22V37.65C90.9753 37.6991 90.7284 37.7359 90.48 37.76C90.25 37.76 90.01 37.76 89.77 37.76C89.2762 37.7941 88.7839 37.6754 88.36 37.42C88.196 37.3127 88.0639 37.1633 87.9776 36.9873C87.8914 36.8113 87.8542 36.6153 87.87 36.42C87.8598 36.2163 87.9081 36.014 88.0091 35.8368C88.11 35.6596 88.2596 35.515 88.44 35.42C88.9267 35.1934 89.4669 35.1068 90 35.17C90.4121 35.1671 90.8226 35.2209 91.22 35.33L90.93 35.76C90.6285 35.6681 90.3152 35.6209 90 35.62C89.6821 35.6025 89.3669 35.6865 89.1 35.86C88.9926 35.9255 88.9045 36.0183 88.8448 36.129C88.785 36.2397 88.7558 36.3643 88.76 36.49C88.7517 36.6089 88.7719 36.7281 88.8188 36.8376C88.8658 36.9472 88.9382 37.044 89.03 37.12C89.2638 37.2823 89.546 37.3599 89.83 37.34H90.38V36.81H89.6V36.33Z" fill="#392C60"/>
<path d="M101.37 37.76V35.21H102.24V37.76H101.37Z" fill="#392C60"/>
<path d="M114.86 37.05C114.854 37.1693 114.812 37.2841 114.741 37.38C114.67 37.476 114.572 37.5491 114.46 37.59C114.111 37.7421 113.731 37.8106 113.35 37.79C112.958 37.796 112.567 37.7455 112.19 37.64V37.14C112.47 37.21 112.7 37.27 112.89 37.3C113.065 37.3301 113.242 37.3469 113.42 37.35C113.566 37.354 113.712 37.3303 113.85 37.28C113.95 37.23 114.01 37.17 114.01 37.08C114.006 37.0261 113.981 36.9759 113.94 36.94C113.878 36.8949 113.811 36.8579 113.74 36.83C113.65 36.83 113.48 36.74 113.21 36.66C113.019 36.603 112.832 36.5329 112.65 36.45C112.536 36.3889 112.435 36.3076 112.35 36.21C112.279 36.1224 112.24 36.0129 112.24 35.9C112.241 35.7835 112.277 35.6701 112.343 35.574C112.409 35.4779 112.502 35.4034 112.61 35.36C112.923 35.2179 113.266 35.1528 113.61 35.17C113.813 35.1545 114.017 35.1545 114.22 35.17C114.426 35.201 114.629 35.2444 114.83 35.3L114.55 35.72C114.33 35.66 114.15 35.63 114.01 35.6H113.58C113.453 35.591 113.325 35.6152 113.21 35.67C113.172 35.6856 113.14 35.7118 113.117 35.7456C113.094 35.7794 113.081 35.8191 113.08 35.86C113.07 35.8785 113.065 35.8991 113.065 35.92C113.065 35.9409 113.07 35.9615 113.08 35.98C113.129 36.0279 113.186 36.0653 113.25 36.09L113.8 36.26C114.079 36.3293 114.343 36.4478 114.58 36.61C114.661 36.6522 114.73 36.7151 114.779 36.7924C114.828 36.8696 114.856 36.9585 114.86 37.05Z" fill="#392C60"/>
<path d="M126.35 37.76H125.48V35.66H124.37V35.21H127.46V35.66H126.35V37.76Z" fill="#392C60"/>
<path d="M137.26 37.76V35.21H138.13V37.76H137.26Z" fill="#392C60"/>
<path d="M150.07 35.62C149.797 35.604 149.528 35.6855 149.31 35.85C149.22 35.9295 149.149 36.0284 149.102 36.1392C149.055 36.25 149.034 36.3699 149.04 36.49C149.04 37.06 149.39 37.34 150.04 37.34C150.377 37.3312 150.712 37.2877 151.04 37.21V37.66C150.674 37.7522 150.297 37.7959 149.92 37.79C149.441 37.8202 148.963 37.7052 148.55 37.46C148.3 37.2677 148.136 36.9856 148.091 36.6737C148.046 36.3619 148.125 36.0448 148.31 35.79C148.487 35.5783 148.719 35.4192 148.98 35.33C149.301 35.218 149.64 35.1638 149.98 35.17C150.387 35.1717 150.791 35.2324 151.18 35.35L150.9 35.79C150.746 35.7406 150.589 35.7006 150.43 35.67C150.311 35.6439 150.191 35.6271 150.07 35.62Z" fill="#392C60"/>
<path d="M75.46 32.71H71.16L70.42 30.84H65.18L64.44 32.71H60.52L64.87 22.42H71.12L75.46 32.71ZM65.72 29.45H69.84L67.78 24.24L65.72 29.45Z" fill="#392C60"/>
<path d="M82.92 30.81L86.18 22.42H90.1L85.9 32.71H79.54L75.35 22.42H79.66L82.92 30.81Z" fill="#392C60"/>
<path d="M101 32.71C100.77 32.45 100.61 32.28 100.61 31.45V29.83C100.61 28.83 99.76 28.52 97.82 28.52H96.34V32.71H92.07V22.42H98.52C102.94 22.42 104.84 23.2 104.84 24.78V25.59C104.84 26.65 103.95 27.34 102.05 27.68C104.18 28.02 104.88 28.8 104.88 29.87V31.46C104.85 31.6909 104.877 31.9257 104.959 32.1437C105.041 32.3617 105.175 32.5562 105.35 32.71H101ZM96.34 23.89V27.05H98C99.59 27.05 100.56 26.78 100.56 25.96V25C100.56 24.26 99.9 23.94 98.39 23.94L96.34 23.89Z" fill="#392C60"/>
<path d="M107.33 24.89C107.33 23.24 109.62 22.3 113.81 22.3C118 22.3 120.29 23.24 120.29 24.89V30.24C120.29 31.89 118 32.83 113.81 32.83C109.62 32.83 107.33 31.89 107.33 30.24V24.89ZM111.6 30.34C111.6 31.08 112.45 31.34 113.81 31.34C115.17 31.34 116.02 31.06 116.02 30.34V24.78C116.02 24.05 115.17 23.78 113.81 23.78C112.45 23.78 111.6 24.06 111.6 24.78V30.34Z" fill="#392C60"/>
<path d="M132 32.71C131.77 32.45 131.61 32.28 131.61 31.45V29.83C131.61 28.83 130.76 28.52 128.82 28.52H127.34V32.71H123V22.42H129.45C133.87 22.42 135.77 23.2 135.77 24.78V25.59C135.77 26.65 134.88 27.34 132.98 27.68C135.11 28.02 135.81 28.8 135.81 29.87V31.46C135.78 31.6909 135.807 31.9257 135.889 32.1437C135.971 32.3617 136.105 32.5562 136.28 32.71H132ZM127.34 23.89V27.05H129C130.59 27.05 131.56 26.78 131.56 25.96V25C131.56 24.26 130.9 23.94 129.39 23.94L127.34 23.89Z" fill="#392C60"/>
<path d="M152.46 32.71H148.15L147.42 30.84H142.18L141.44 32.71H137.52L141.87 22.42H148.12L152.46 32.71ZM142.72 29.45H146.84L144.78 24.24L142.72 29.45Z" fill="#392C60"/>
<defs>
<radialGradient id="paint0_radial_13_819" cx="0" cy="0" r="1" gradientUnits="userSpaceOnUse" gradientTransform="translate(43.22 26.56) scale(26.86)">
<stop stop-color="#F6F6F6"/>
<stop offset="0.22" stop-color="#F6F6F6"/>
<stop offset="0.26" stop-color="#EDEDED"/>
<stop offset="0.33" stop-color="#D5D4D3"/>
<stop offset="0.41" stop-color="#AEABAB"/>
<stop offset="0.49" stop-color="#847F7E"/>
<stop offset="0.57" stop-color="#766F6D"/>
<stop offset="0.68" stop-color="#9C9794"/>
<stop offset="0.81" stop-color="#463E3D"/>
</radialGradient>
<linearGradient id="paint1_linear_13_819" x1="43.4562" y1="28.5411" x2="43.0751" y2="19.4091" gradientUnits="userSpaceOnUse">
<stop stop-color="white"/>
<stop offset="0.09" stop-color="white"/>
<stop offset="1" stop-color="white"/>
</linearGradient>
<radialGradient id="paint2_radial_13_819" cx="0" cy="0" r="1" gradientUnits="userSpaceOnUse" gradientTransform="translate(39.0864 25.7185) rotate(-5.97) scale(27.11)">
<stop offset="0.22" stop-color="#E6B100"/>
<stop offset="0.32" stop-color="#E2A300"/>
<stop offset="0.5" stop-color="#D77F00"/>
<stop offset="0.68" stop-color="#CA5500"/>
</radialGradient>
<linearGradient id="paint3_linear_13_819" x1="33.9923" y1="28.2521" x2="51.9543" y2="26.3737" gradientUnits="userSpaceOnUse">
<stop offset="0.02" stop-color="#DA8D00"/>
<stop offset="0.22" stop-color="#D67F00"/>
<stop offset="0.25" stop-color="#DB8D00"/>
<stop offset="0.32" stop-color="#E7B000"/>
<stop offset="0.35" stop-color="#F0C900"/>
<stop offset="0.46" stop-color="#F7E05C"/>
<stop offset="0.48" stop-color="#F4DA4E"/>
<stop offset="0.52" stop-color="#ECCA2A"/>
<stop offset="0.56" stop-color="#E3B700"/>
<stop offset="0.65" stop-color="#E4B70E"/>
<stop offset="0.8" stop-color="#E6B931"/>
<stop offset="0.96" stop-color="#E8BA5A"/>
</linearGradient>
</defs>
</svg>
