<?xml version="1.0" encoding="UTF-8"?>
<!DOCTYPE svg PUBLIC "-//W3C//DTD SVG 1.1//EN" "http://www.w3.org/Graphics/SVG/1.1/DTD/svg11.dtd">
<!-- Creator: CorelDRAW 2021.5 -->
<svg xmlns="http://www.w3.org/2000/svg" xml:space="preserve" width="57.3885mm" height="33.7806mm" version="1.1" style="shape-rendering:geometricPrecision; text-rendering:geometricPrecision; image-rendering:optimizeQuality; fill-rule:evenodd; clip-rule:evenodd"
viewBox="0 0 454.67 267.63"
 xmlns:xlink="http://www.w3.org/1999/xlink"
 xmlns:xodm="http://www.corel.com/coreldraw/odm/2003">
 <defs>
  <style type="text/css">
   <![CDATA[
    .fil0 {fill:#1C1475}
   ]]>
  </style>
 </defs>
 <g id="Слой_x0020_1">
  <metadata id="CorelCorpID_0Corel-Layer"/>
  <path class="fil0" d="M297.48 220.59c-2.61,12.7 -5.31,25.37 -7.92,38.07 0,1.61 1.87,1.77 3.09,1.77 5.94,0 11.87,0 17.81,0 -0.71,-0 -1.75,-0.09 -2.19,-0.72 -0.22,-0.31 -0.23,-0.63 -0.22,-0.98 0,-0.05 0.01,-0.09 0.02,-0.14 2.59,-10.84 4.97,-21.72 7.35,-32.6 0.07,-0.32 0.35,-0.55 0.68,-0.55l4.08 0c0.22,0 0.41,0.09 0.54,0.26 0.14,0.17 0.18,0.38 0.13,0.59l-7.51 32.37c0,1.45 1.17,1.77 2.42,1.77 6.45,0 12.91,-0 19.36,0 -0.76,-0 -1.68,-0.11 -2.31,-0.57 -0.28,-0.2 -0.55,-0.52 -0.58,-0.87 -0.01,-0.12 0,-0.22 0.05,-0.33 0,0 0,0 0,-0 2.39,-12.73 5.09,-25.4 7.7,-38.09 0,-0.38 0.04,-0.71 -0.14,-1.06 -0.29,-0.6 -1.01,-0.72 -1.62,-0.72l-43.14 0c0.68,0 1.45,0.13 1.98,0.59 0.26,0.22 0.5,0.57 0.5,0.92 -0,0.11 -0.02,0.2 -0.07,0.29zm147.02 -12.53l1.74 0c0.55,0 1.01,-0.14 1.39,-0.41 0.38,-0.28 0.57,-0.66 0.57,-1.16 0,-0.5 -0.19,-0.88 -0.57,-1.16 -0.38,-0.27 -0.84,-0.41 -1.39,-0.41l-1.74 0 0 3.14zm0 1.21l0 3.75 -1.37 0 0 -9.31 3.3 0c1.06,0 1.86,0.28 2.4,0.83 0.53,0.55 0.8,1.2 0.8,1.94 0,0.51 -0.16,0.99 -0.47,1.44 -0.31,0.45 -0.77,0.8 -1.37,1.04l0 0.03 2.86 4.04 -1.66 0 -2.57 -3.75 -1.91 0zm1.98 -9.11c2.26,0 4.31,0.92 5.79,2.4 1.48,1.48 2.4,3.53 2.4,5.79 0,2.26 -0.92,4.3 -2.4,5.78 -1.48,1.49 -3.53,2.4 -5.79,2.4 -2.26,0 -4.31,-0.92 -5.79,-2.4 -1.48,-1.48 -2.4,-3.53 -2.4,-5.79 0,-2.26 0.92,-4.3 2.4,-5.78 1.48,-1.48 3.53,-2.4 5.79,-2.4zm4.73 3.45c-1.21,-1.21 -2.88,-1.96 -4.73,-1.96 -1.85,0 -3.52,0.75 -4.73,1.96 -1.21,1.21 -1.96,2.89 -1.96,4.73 0,1.85 0.75,3.52 1.96,4.73 1.21,1.21 2.89,1.96 4.73,1.96 1.85,0 3.52,-0.75 4.73,-1.96 1.21,-1.21 1.96,-2.89 1.96,-4.74 0,-1.85 -0.75,-3.52 -1.96,-4.73zm-264.92 34.69c1.54,-0.44 3.02,-1.19 4.23,-2.23 1.59,-1.6 2.41,-3.97 2.41,-6.21 0,-3.63 -1.59,-6.67 -4.83,-8.41 -4.15,-2.23 -9.67,-2.66 -14.31,-2.66l-16.51 0 0.44 0.89 0.15 0.3c0.05,0.1 0.07,0.2 0.07,0.31l0 0.22c0,0.05 -0,0.08 -0.01,0.13l-0.87 4.81c-2.3,10.91 -4.28,21.87 -6.6,32.77 0,0.67 0.25,1.78 1.1,1.78l20.91 0c4.59,0 10.36,-0.62 14.31,-3.11 3.46,-2.17 5.28,-5.67 5.28,-9.74 0,-2.08 -0.97,-3.87 -2.41,-5.32 -0.95,-0.95 -2.2,-1.7 -3.43,-2.22 -0.28,-0.12 -0.44,-0.38 -0.42,-0.68 0.02,-0.3 0.21,-0.54 0.5,-0.62zm-18.53 11.14l0.87 -5.27c0.06,-0.34 0.34,-0.58 0.69,-0.58l2.06 0c0.93,0 2.74,0.37 3.52,0.89 0.13,0.03 0.22,0.08 0.32,0.17 0.43,0.4 0.79,1.45 0.79,2.03 0,1.14 -0.5,2.15 -1.54,2.67 -1.4,0.69 -4.15,0.89 -5.72,0.89l-0.28 0c-0.21,0 -0.39,-0.08 -0.53,-0.24 -0.14,-0.16 -0.19,-0.35 -0.16,-0.56zm9.77 -18.24c0,0.91 -0.47,1.77 -1.29,2.19 -0.02,0.01 -0.04,0.02 -0.06,0.03 -1.28,0.5 -3.21,0.43 -4.59,0.43l-0.03 0c-0.22,0 -0.4,-0.09 -0.54,-0.26 -0.14,-0.17 -0.19,-0.37 -0.14,-0.58l0.82 -3.92c0.07,-0.33 0.35,-0.55 0.68,-0.55l1.63 0c0.65,0 2.19,0.42 2.64,0.88 0.15,0.03 0.27,0.09 0.38,0.2 0.33,0.35 0.5,1.1 0.5,1.58zm31.93 0.86l-6.39 26.15c0.32,1.34 0.79,1.78 2.2,1.78 6.53,0 13.06,-0 19.58,0 -0.83,-0 -1.99,-0.85 -1.76,-1.78l6.48 -26.48c0.08,-0.31 0.35,-0.53 0.68,-0.53l8.04 0c0.94,0 2.23,-0.96 2.63,-1.78 0.77,-4.23 2.05,-8.33 3.02,-12.52 -0.33,0.75 -1.77,1.44 -2.57,1.44l-38.29 0c-0.99,0.1 -1.07,0.19 -1.77,0.89l-0.21 0.45 -0.22 0.89 -2.65 12.4c0.88,-1.18 1.53,-1.77 3.07,-1.77l7.49 0c0.22,0 0.41,0.09 0.55,0.27 0.14,0.17 0.18,0.38 0.13,0.59zm50.83 -13.27c-4.92,0 -10.44,3.49 -11.67,8.42l-4.84 24.36c-1.2,5.3 3.16,8.85 8.14,8.85l18.92 0c5.08,0 10.53,-3.79 11.67,-8.86l4.62 -24.35c0.41,-2.14 -0.19,-4.27 -1.67,-5.88 -1.61,-1.75 -3.92,-2.55 -6.26,-2.55l-18.93 0zm-0.43 31.43l4.61 -21.25c0.17,-1.36 1.3,-3.54 2.87,-3.54l1.98 0c1.85,0 2.04,2.22 1.54,3.54l-3.72 21.15c-0.02,0.09 -0.05,0.17 -0.1,0.25 -0.63,1.01 -1.91,2.98 -3.23,2.97l-2.2 -0c-1.61,0 -1.91,-1.8 -1.77,-3.05 0,-0.03 0.01,-0.05 0.01,-0.07zm100.26 -29.92l-19.94 37.9 -0.22 0.45 0 0.45 0.22 0.44 0.66 0.45 16.29 0c-0.14,0 -0.27,-0.04 -0.39,-0.12l-0.34 -0.22c-0.11,-0.07 -0.18,-0.16 -0.24,-0.28l-0.02 -0.05c-0.07,-0.15 -0.09,-0.3 -0.05,-0.47l0.15 -0.61c0.01,-0.03 0.01,-0.05 0.02,-0.08l1.14 -3.05c0.1,-0.28 0.36,-0.45 0.65,-0.45l8.96 0c0.38,0 0.7,0.31 0.7,0.69l0 2.85c0,0.63 0.16,0.79 0.44,1.34 0.45,0.46 0.69,0.45 1.31,0.45l14.75 0 -1.17 -0.79c-0.1,-0.07 -0.18,-0.16 -0.24,-0.27l-0.14 -0.28 -0.17 -0.34c-0.03,-0.07 -0.05,-0.13 -0.06,-0.21 -1.79,-12.64 -3.32,-25.32 -5.05,-37.98l-0.09 -0.27 -0.12 -0.17 -0.66 -0.45 -1.33 -0.89 -16.27 0c0.56,0.38 1.14,0.79 1.29,1.5 0.03,0.16 0.01,0.31 -0.07,0.46zm2.02 23.68c0.72,-1.85 1.39,-3.72 2.09,-5.58 0.35,-0.94 0.7,-1.88 1.07,-2.81 0.12,-0.31 0.44,-0.49 0.77,-0.43 0.33,0.06 0.56,0.33 0.57,0.67 0.07,2.79 0.22,5.58 0.36,8.38 0.01,0.2 -0.06,0.37 -0.19,0.51 -0.14,0.14 -0.31,0.22 -0.5,0.22l-3.51 0c-0.24,0 -0.44,-0.11 -0.57,-0.3 -0.13,-0.19 -0.16,-0.42 -0.07,-0.64zm48.85 -222.92c-0.25,7.05 -0.71,14.09 -1.18,21.12 -0.74,10.96 -1.59,21.92 -2.48,32.87 -2.15,26.43 -4.52,52.84 -6.97,79.24 -2.21,23.86 -4.5,47.71 -6.85,71.55 -0.77,7.75 -1.54,15.5 -2.33,23.26 -0.23,2.27 -0.46,4.54 -0.71,6.81 -0.1,0.99 -0.19,1.98 -0.33,2.96 0,0.46 -0.04,0.89 0.17,1.32 0.33,0.7 1.11,0.85 1.81,0.85l14.53 0c-1.25,0 -2.38,-0.79 -2.42,-2.12 -0,-0.04 0,-0.07 0.01,-0.11 0.72,-5.58 1.59,-11.13 2.38,-16.7 0.05,-0.33 0.31,-0.58 0.65,-0.6 0.33,-0.02 0.63,0.19 0.71,0.52l4.4 16.83c0.39,1.11 1.14,2.17 2.43,2.17l11.22 0c1.43,0 2.17,-0.81 2.41,-2.18 0.66,-3.72 1.33,-7.44 1.76,-11.19 -0.67,1.76 -2.08,2.56 -3.7,1.36 -1.04,-0.77 -1.98,-2.28 -2.24,-3.53 -0.52,-2.45 -1.11,-4.89 -1.76,-7.3 -0.55,-2.02 -1.13,-4.04 -1.67,-6.07 -0.05,-0.2 -0.02,-0.39 0.09,-0.56l13.01 -19.62c0,-0.01 0.01,-0.01 0.01,-0.02 0.6,-0.84 0.71,-2.16 -0.66,-2.16l-17.61 0c0.67,0 1.29,0.23 1.62,0.85 0.19,0.35 0.27,0.86 0.16,1.25 -0.01,0.04 -0.03,0.08 -0.05,0.12 -2.53,5.09 -5.05,10.19 -7.57,15.29 -0.15,0.3 -0.49,0.45 -0.81,0.36 -0.32,-0.09 -0.53,-0.4 -0.5,-0.73l19.47 -218.2 -14.53 -8.71c-6.85,8.86 -14.27,17.28 -21.91,25.46 -9.43,10.09 -19.26,19.81 -29.39,29.2 -11.25,10.43 -22.87,20.45 -34.86,30.02 -12.36,9.85 -25.1,19.22 -38.31,27.9 -10.55,6.93 -21.41,13.43 -32.6,19.26 -12.26,6.38 -25.09,12.04 -38.29,16.19 -24.88,7.81 -53.05,10.7 -76.33,-3.31 -0.22,-0.13 -0.34,-0.35 -0.34,-0.6l0 -12.97 -16.37 1.18 -0.17 0.16 -0.01 0.18c-0.19,3.58 -0.61,7.16 -1.07,10.72 -0.62,4.9 -1.35,9.78 -2.13,14.66 -1.9,11.95 -4.08,23.86 -6.41,35.74 -0.02,0.11 -0.06,0.19 -0.12,0.28 -2.25,3.04 -5.23,5.75 -8.14,8.15 -4.04,3.35 -8.34,6.38 -12.73,9.25 -10.69,7.01 -21.98,13.15 -33.46,18.76 -11.37,5.54 -23.05,10.62 -35.03,14.68 -4.82,1.63 -9.71,3.1 -14.69,4.15 -3.5,0.74 -7.4,1.38 -10.98,1.14 0,5.82 -0.02,11.63 -0.13,17.45l3.43 0 0 -8.56c0,-0.3 0.19,-0.56 0.48,-0.66 35.24,-11.67 70.71,-22.6 105.75,-34.87 0.24,-0.08 0.5,-0.04 0.69,0.14 0.19,0.17 0.27,0.42 0.22,0.67 -1.59,7.19 -3.42,14.33 -5.75,21.32 -1.38,4.14 -3.02,8.18 -4.54,12.28 -0.08,0.33 -0.28,0.82 -0.22,1.16 0.08,0.5 0.69,0.82 1.11,1.02l16.06 0c-0.28,-0.2 -0.64,-0.42 -0.88,-0.66 -0.15,-0.15 -0.21,-0.34 -0.2,-0.55 0.03,-0.31 0.13,-0.63 0.19,-0.93 0.01,-0.03 0.01,-0.05 0.02,-0.07l1.37 -4.14c0.1,-0.29 0.36,-0.48 0.66,-0.48l8.73 0c0.37,0 0.68,0.29 0.69,0.66l0.19 3.98c0,0.01 0,0.02 0,0.03 0,1.91 0.31,2.16 2.2,2.16l14.3 0c-1.45,-0.52 -1.48,-0.73 -1.96,-2.1 -0.02,-0.06 -0.03,-0.11 -0.04,-0.16 -0.77,-7.71 -1.7,-15.4 -2.46,-23.11 -0.76,-7.63 -1.27,-15.27 -1.47,-22.93 -0.01,-0.3 0.17,-0.56 0.45,-0.67 9.67,-3.56 19.09,-7.76 28.5,-11.95 9.33,-4.16 18.65,-8.38 28.2,-12.02 0.18,-0.07 0.36,-0.06 0.53,0.02 18.35,8.23 36.57,12.43 56.69,12.82 9.22,0.18 18.44,-0.4 27.61,-1.27 9.65,-0.91 19.27,-2.11 28.9,-3.19 0.2,-0.02 0.39,0.04 0.54,0.17 0.15,0.14 0.23,0.31 0.23,0.52 0,2.68 0,5.37 0,8.06 0,3.01 0,6.02 0,9.03 0.92,0.65 2.34,0.45 3.3,0 0,-7.2 0,-14.4 0,-21.6 -7.25,1.77 -14.83,-0 -18.87,-6.69 -2.03,-3.36 -2.74,-7.36 -2.6,-11.24 0.18,-5.19 1.84,-10.36 4.09,-15.01 2.5,-5.19 5.51,-10.13 8.69,-14.93 3.77,-5.67 7.83,-11.14 12.02,-16.51 9.7,-12.43 20.1,-24.3 30.6,-36.05 11.16,-12.48 22.5,-24.8 33.67,-37.27 9.79,-10.92 19.49,-21.93 28.6,-33.43 0.19,-0.24 0.5,-0.33 0.78,-0.22 0.29,0.11 0.47,0.37 0.45,0.68zm-29.77 23.92c-18.9,19.63 -38.86,38.23 -59.91,55.55 -27.44,22.58 -56.68,42.89 -87.38,60.79 -29.65,17.29 -60.57,32.29 -92.25,45.47 -29.15,12.12 -58.92,22.71 -88.98,32.37 -0.35,0.11 -0.72,-0.06 -0.86,-0.4 -0.14,-0.34 0.01,-0.72 0.34,-0.88 11.18,-5.51 22.23,-11.33 32.89,-17.8 11.13,-6.76 22.26,-14.43 31.49,-23.67 17.76,-17.81 19.44,-34.83 10.77,-57.75 -0.12,-0.3 -0.01,-0.64 0.26,-0.82 0.27,-0.18 0.62,-0.16 0.86,0.06 9.85,8.99 21.31,15 34.34,17.85 12.52,2.74 25.49,2.37 38.07,0.2 25.52,-4.41 50.96,-16.35 73.18,-29.38 13.57,-7.96 26.64,-16.75 39.32,-26.07 12.44,-9.14 24.51,-18.8 36.25,-28.82 10.47,-8.94 20.68,-18.18 30.63,-27.68 0.27,-0.26 0.71,-0.26 0.97,0.01 0.27,0.27 0.27,0.7 0.01,0.97zm-261.18 194.75c0.72,-3.36 1.52,-6.71 2.35,-10.05 0.41,-1.66 0.84,-3.31 1.3,-4.95 0.01,-0.02 0.01,-0.05 0.02,-0.07 0.09,-0.32 0.38,-0.53 0.71,-0.51 0.33,0.02 0.6,0.27 0.64,0.6l2.16 15.27c0.03,0.21 -0.03,0.4 -0.17,0.56 -0.14,0.16 -0.33,0.24 -0.54,0.23l-5.83 -0.24c-0.21,-0.01 -0.39,-0.1 -0.52,-0.27 -0.13,-0.17 -0.17,-0.36 -0.13,-0.57z"/>
 </g>
</svg>
